<svg aria-hidden="true" xmlns="http://www.w3.org/2000/svg"><defs><symbol id="icon-linkedin" viewBox="0 0 34 32"><path stroke-linejoin="round" stroke-linecap="round" stroke-width="2" d="M23 11a9 9 0 0 1 9 9v10.5h-6V20a3.004 3.004 0 0 0-3-3 3.004 3.004 0 0 0-3 3v10.5h-6V20a9 9 0 0 1 9-9zM8 12.5H2v18h6v-18zM5 8a3 3 0 1 0 0-6 3 3 0 0 0 0 6z"/></symbol><symbol id="icon-maild" viewBox="0 0 38 32"><path stroke-linejoin="round" stroke-linecap="round" stroke-width="2.133" d="M5.547 2.133h27.307a3.423 3.423 0 0 1 3.413 3.413v20.48a3.423 3.423 0 0 1-3.413 3.413H5.547a3.423 3.423 0 0 1-3.413-3.413V5.546a3.423 3.423 0 0 1 3.413-3.413z"/><path stroke-linejoin="round" stroke-linecap="round" stroke-width="2.133" d="M36.267 5.547 19.2 17.494 2.133 5.547"/></symbol><symbol id="icon-mail" viewBox="0 0 38 32"><path stroke-linejoin="round" stroke-linecap="round" stroke-width="2.133" d="M5.547 2.133h27.307a3.423 3.423 0 0 1 3.413 3.413v20.48a3.423 3.423 0 0 1-3.413 3.413H5.547a3.423 3.423 0 0 1-3.413-3.413V5.546a3.423 3.423 0 0 1 3.413-3.413z"/><path stroke-linejoin="round" stroke-linecap="round" stroke-width="2.133" d="M36.267 5.547 19.2 17.494 2.133 5.547"/></symbol></defs></svg>