<svg aria-hidden="true" xmlns="http://www.w3.org/2000/svg"><defs><symbol id="icon-linkedin" viewBox="0 0 34 32"><path stroke-linejoin="round" stroke-linecap="round" stroke-width="2" d="M23 11a9 9 0 0 1 9 9v10.5h-6V20a3.004 3.004 0 0 0-3-3 3.004 3.004 0 0 0-3 3v10.5h-6V20a9 9 0 0 1 9-9zM8 12.5H2v18h6v-18zM5 8a3 3 0 1 0 0-6 3 3 0 0 0 0 6z"/></symbol><symbol id="icon-maild" viewBox="0 0 38 32"><path stroke-linejoin="round" stroke-linecap="round" stroke-width="2.133" d="M5.547 2.133h27.307a3.423 3.423 0 0 1 3.413 3.413v20.48a3.423 3.423 0 0 1-3.413 3.413H5.547a3.423 3.423 0 0 1-3.413-3.413V5.546a3.423 3.423 0 0 1 3.413-3.413z"/><path stroke-linejoin="round" stroke-linecap="round" stroke-width="2.133" d="M36.267 5.547 19.2 17.494 2.133 5.547"/></symbol><symbol id="icon-mail" viewBox="0 0 38 32"><path stroke-linejoin="round" stroke-linecap="round" stroke-width="2.133" d="M5.547 2.133h27.307a3.423 3.423 0 0 1 3.413 3.413v20.48a3.423 3.423 0 0 1-3.413 3.413H5.547a3.423 3.423 0 0 1-3.413-3.413V5.546a3.423 3.423 0 0 1 3.413-3.413z"/><path stroke-linejoin="round" stroke-linecap="round" stroke-width="2.133" d="M36.267 5.547 19.2 17.494 2.133 5.547"/></symbol><symbol id="icon-mail-contact" viewBox="0 0 32 32"><path fill="none" stroke="#f9f8fa" style="stroke:var(--color1,#f9f8fa)" stroke-linejoin="round" stroke-linecap="round" stroke-width="1.6" d="M29 9v14a3.004 3.004 0 0 1-3 3H6a3.004 3.004 0 0 1-3-3V9m26 0a3.004 3.004 0 0 0-3-3H6a3.004 3.004 0 0 0-3 3m26 0v.324a2.998 2.998 0 0 1-1.427 2.555l-10 6.153a3.004 3.004 0 0 1-3.146 0l-10-6.152A3.001 3.001 0 0 1 3 9.325V9"/></symbol><symbol id="icon-phone-contact" viewBox="0 0 32 32"><path fill="none" stroke="#fff" style="stroke:var(--color2,#fff)" stroke-linejoin="round" stroke-linecap="round" stroke-width="1.6" d="M3 9c0 11.045 8.955 20 20 20h3a3.004 3.004 0 0 0 3-3v-1.829a1.5 1.5 0 0 0-1.136-1.455l-5.897-1.475a1.498 1.498 0 0 0-1.564.556l-1.293 1.724c-.376.501-1.025.723-1.613.507a16.05 16.05 0 0 1-9.524-9.524c-.216-.588.005-1.237.507-1.613l1.724-1.293c.484-.361.703-.979.556-1.564L9.285 4.137A1.498 1.498 0 0 0 7.83 3.001H6.001a3.004 3.004 0 0 0-3 3v3z"/></symbol></defs></svg>