<svg width="1104" height="1118" fill="none" xmlns="http://www.w3.org/2000/svg"><path d="M155.564 166.6s433.656 293.762 306.859 60.961c-126.796-232.8-252.108 140.79-55.629 239.589s122.664-89.594 215.912 9.533 40.122 84.239 60.564 178.345c20.442 94.107 249.192-61.976 253.096 46.8 3.905 108.776-277.754 304.792-89.114 353.272 130.761 33.6 165.328-138.266 165.328-138.266" stroke="#175073" stroke-opacity=".5"/><path d="M135.687 161.366s447.79 385.428 374.647 180.354c-73.142-205.073-382.883-28.149-166.509 124.912 216.374 153.062 194.59.434 276.732 105.924 82.142 105.49 18.985 71.54 8.523 140.177-10.463 68.637 348.093 76.359 310.377 146.567-37.715 70.208-480.71 63.11-254.725 180.9 156.649 81.65 269.163-10.42 269.163-10.42" stroke="#175073" stroke-opacity=".5"/><path d="M154.544 166.361s434.82 298.504 310.469 66.78C340.662 1.417 206.319 365.95 403.976 467.473c197.657 101.522 126.268-85.357 219.085 14.187 92.816 99.543 39.148 83.72 58.122 176.704 18.975 92.985 254.238-55.382 256.14 51.657 1.902 107.04-287.848 293.489-97.198 345.359 132.155 35.96 170.525-132.258 170.525-132.258" stroke="#175073" stroke-opacity=".5"/><path d="M153.311 166.293s436.149 303.36 314.193 72.624C345.549 8.181 202.132 363.796 401.041 468.081c198.91 104.285 129.918-81.153 222.338 18.846 92.421 99.998 38.19 83.234 55.706 175.132 17.516 91.898 259.375-48.809 259.278 56.534-.098 105.344-298.042 282.297-105.311 337.587 133.598 38.32 175.768-126.311 175.768-126.311" stroke="#175073" stroke-opacity=".5"/><path d="M152.102 166.2s437.408 308.166 317.867 78.456c-119.54-229.71-272.006 116.929-71.877 223.96 200.129 107.03 133.545-76.936 225.555 23.501 92.01 100.437 37.225 82.735 53.28 173.531s264.471-42.229 262.374 61.402c-2.097 103.631-308.188 271.067-113.406 329.75 135.019 40.68 180.995-120.332 180.995-120.332" stroke="#175073" stroke-opacity=".5"/><path d="M150.92 166.083s438.595 312.923 321.49 84.275C355.304 21.71 193.813 359.318 395.129 469.077 596.446 578.835 532.28 396.37 623.865 497.23c91.584 100.859 36.254 82.222 50.845 171.902 14.591 89.68 269.523-35.641 265.428 66.26-4.096 101.901-318.284 259.787-121.484 321.868 136.419 43.03 186.186-114.342 186.186-114.342" stroke="#175073" stroke-opacity=".5"/><path d="M149.765 165.942s439.712 317.63 325.06 90.081C360.173 28.475 189.683 356.997 392.154 469.466c202.472 112.468 140.735-68.465 231.879 32.8 91.144 101.265 35.278 81.696 48.402 170.246 13.125 88.549 274.533-29.048 268.439 71.107-6.095 100.155-328.328 248.466-129.541 313.931 137.795 45.37 191.347-108.332 191.347-108.332" stroke="#175073" stroke-opacity=".5"/><path d="M148.638 165.78s440.757 322.284 328.577 95.872c-112.179-226.411-291.642 92.971-88.048 208.132 203.594 115.16 144.296-64.213 234.985 37.442 90.688 101.655 34.295 81.157 45.951 168.561 11.657 87.404 279.498-22.45 271.406 75.943-8.092 98.392-338.318 237.104-137.577 305.94 139.15 47.71 196.478-102.3 196.478-102.3" stroke="#175073" stroke-opacity=".5"/><path d="M147.54 165.597s441.731 326.886 332.042 101.647c-109.689-225.238-298.094 84.954-93.411 202.787 204.683 117.834 147.834-59.949 238.052 42.078 90.219 102.028 33.308 80.605 43.494 166.85 10.186 86.245 284.416-15.848 274.328 80.766-10.088 96.614-348.254 225.704-145.591 297.905 140.482 50.04 201.577-96.258 201.577-96.258" stroke="#175073" stroke-opacity=".5"/><path d="M146.472 165.393S589.104 496.828 481.924 272.8c-107.181-224.029-304.497 76.921-98.759 197.409 205.739 120.488 151.348-55.677 241.082 46.707 89.734 102.384 32.314 80.038 41.028 165.11 8.714 85.072 289.289-9.243 277.207 85.577-12.083 94.82-358.133 214.267-153.582 289.817 141.792 52.36 206.644-90.195 206.644-90.195" stroke="#175073" stroke-opacity=".5"/><path d="M145.435 165.17s443.462 335.931 338.808 113.148c-104.655-222.782-310.852 68.878-104.091 192 206.761 123.122 154.837-51.396 244.072 51.328 89.235 102.725 31.316 79.46 38.556 163.345 7.241 83.885 294.116-2.638 280.041 90.373-14.075 93.011-367.954 202.796-161.547 281.676 143.078 54.69 211.676-84.111 211.676-84.111" stroke="#175073" stroke-opacity=".5"/><path d="M144.429 164.929S588.65 505.3 486.538 283.8C384.426 62.3 169.383 344.622 377.133 470.359c207.75 125.737 158.3-47.105 247.022 55.942 88.721 103.047 30.312 78.868 36.078 161.553 5.767 82.684 298.894 3.968 282.829 95.154-16.065 91.186-377.716 191.292-169.486 273.502 144.341 56.99 216.674-78.027 216.674-78.027" stroke="#175073" stroke-opacity=".5"/><path d="M143.455 164.67S588.363 509.428 488.81 289.246c-99.553-220.181-323.408 52.757-114.702 181.088 208.705 128.332 161.739-42.808 249.932 60.546 88.193 103.354 29.304 78.264 33.595 159.734 4.29 81.47 303.624 10.574 285.571 99.921-18.053 89.347-387.417 179.756-177.399 265.275 145.581 59.28 221.638-71.921 221.638-71.921" stroke="#175073" stroke-opacity=".5"/><path d="M142.515 164.396s445.521 349.088 348.544 130.26c-96.978-218.828-329.608 44.683-119.981 175.588 209.627 130.904 165.151-38.504 252.802 65.139 87.651 103.644 28.291 77.648 31.106 157.89 2.814 80.243 308.305 17.178 288.267 104.671-20.038 87.494-397.054 168.192-185.282 257.016 146.797 61.56 226.565-65.814 226.565-65.814" stroke="#175073" stroke-opacity=".5"/><path d="M141.609 164.107s446.064 353.361 351.677 135.922C398.9 82.591 157.532 336.631 368.047 470.088c210.514 133.457 168.536-34.193 255.63 69.723 87.095 103.917 27.273 77.018 28.611 156.021 1.338 79.002 312.936 23.779 290.917 109.404-22.02 85.625-406.627 156.6-193.135 248.704 147.99 63.84 231.456-59.686 231.456-59.686" stroke="#175073" stroke-opacity=".5"/><path d="M140.738 163.803S587.271 521.38 495.491 305.366c-91.78-216.014-341.846 28.515-130.478 164.502 211.367 135.988 171.894-29.876 258.418 74.296 86.524 104.173 26.251 76.376 26.112 154.125-.139 77.75 317.516 30.377 293.518 114.12-23.997 83.743-416.134 144.983-200.956 240.351 149.158 66.11 236.309-53.548 236.309-53.548" stroke="#175073" stroke-opacity=".5"/><path d="M139.902 163.486s446.931 361.735 357.772 147.181c-89.159-214.554-347.883 20.424-135.696 158.92 212.187 138.496 175.225-25.556 261.164 78.856 85.939 104.411 25.224 75.721 23.608 152.205-1.615 76.484 322.045 36.968 296.073 118.816-25.971 81.848-425.574 133.342-208.745 231.966 150.302 68.37 241.123-47.41 241.123-47.41" stroke="#175073" stroke-opacity=".5"/><path d="M139.104 163.157s447.255 365.834 360.732 152.775c-86.523-213.06-353.863 12.328-140.891 153.31 212.971 140.982 178.526-21.23 263.866 83.404 85.341 104.634 24.194 75.054 21.102 150.26-3.092 75.206 326.521 43.555 298.579 123.494-27.941 79.939-434.944 121.68-216.5 223.54 151.422 70.61 245.899-41.26 245.899-41.26" stroke="#175073" stroke-opacity=".5"/><path d="M138.343 162.817S585.85 532.691 501.976 321.161c-83.873-211.531-359.785 4.231-146.064 147.676 213.722 143.446 181.799-16.901 266.528 87.938 84.728 104.839 23.159 74.375 18.591 148.291-4.569 73.916 330.943 50.134 301.037 128.152-29.906 78.017-444.245 109.997-224.221 215.082 152.517 72.84 250.635-35.1 250.635-35.1" stroke="#175073" stroke-opacity=".5"/><path d="M137.619 162.467s447.687 373.854 366.477 163.887c-81.21-209.967-365.65-3.866-151.213 142.019 214.437 145.886 185.042-12.57 269.144 92.458 84.102 105.027 22.121 73.684 16.078 146.298-6.044 72.613 335.313 56.705 303.447 132.788C909.685 916 488.078 938.215 709.647 1046.5c153.587 75.06 255.33-28.94 255.33-28.94" stroke="#175073" stroke-opacity=".5"/><path d="M136.935 162.107s447.794 377.774 369.26 169.405c-78.533-208.37-371.455-11.963-156.337 136.338 215.117 148.302 188.256-8.237 271.718 96.962 83.462 105.199 21.079 72.982 13.561 144.281-7.518 71.299 339.629 63.267 305.807 137.404-33.822 74.136-462.628 86.582-239.551 198.053 154.633 77.27 259.983-22.77 259.983-22.77" stroke="#175073" stroke-opacity=".5"/><path d="M136.291 161.74s447.828 381.632 371.984 174.894c-75.844-206.739-377.2-20.058-161.437 130.635 215.764 150.694 191.439-3.901 274.248 101.452 82.808 105.353 20.033 72.266 11.043 142.24-8.991 69.974 343.889 69.819 308.117 141.997-35.772 72.178-471.708 74.852-247.158 189.492 155.653 79.47 264.594-16.6 264.594-16.6" stroke="#175073" stroke-opacity=".5"/></svg>