<svg width="512" height="414" fill="none" xmlns="http://www.w3.org/2000/svg"><path d="M49.652 170.255s472.263 170.581 295.368-19.308c-176.895-189.89-192.243 197.779 12.668 242.378" stroke="#175073" stroke-opacity=".5"/><path d="M48.66 170.285s474.576 174.807 300.191-14.673c-174.385-189.48-200.345 191.834 6.357 238.731" stroke="#175073" stroke-opacity=".5"/><path d="M47.52 170.531s477.067 179.1 305.124-10.043c-171.944-189.143-208.517 185.961.054 235.175" stroke="#175073" stroke-opacity=".5"/><path d="M46.395 170.747s479.483 183.363 310.008-5.412C186.928-23.44 139.748 345.394 350.155 396.916" stroke="#175073" stroke-opacity=".5"/><path d="M45.288 170.934s481.821 187.597 314.843-.779c-166.979-188.377-224.758 174.126-12.55 227.949" stroke="#175073" stroke-opacity=".5"/><path d="M44.2 171.091s484.08 191.801 319.625 3.854C199.37-13.002 131.001 343.11 344.976 399.225" stroke="#175073" stroke-opacity=".5"/><path d="M43.132 171.221s486.26 195.973 324.355 8.486C205.583-7.781 126.634 341.884 342.341 400.282" stroke="#175073" stroke-opacity=".5"/><path d="M42.084 171.323S530.446 371.437 371.12 184.44C211.791-2.558 122.275 340.603 339.68 401.274" stroke="#175073" stroke-opacity=".5"/><path d="M41.058 171.398s490.385 204.223 333.66 17.745C217.992 2.666 117.925 339.268 336.992 402.201" stroke="#175073" stroke-opacity=".5"/><path d="M40.056 171.447s492.328 208.298 338.23 22.371C224.188 7.891 113.585 337.878 334.279 403.065" stroke="#175073" stroke-opacity=".5"/><path d="M39.076 171.471s494.192 212.339 342.747 26.993-272.566 137.973-50.281 205.402" stroke="#175073" stroke-opacity=".5"/><path d="M38.122 171.471s495.975 216.345 347.207 31.61C236.562 18.346 104.943 334.945 328.782 404.605" stroke="#175073" stroke-opacity=".5"/><path d="M37.194 171.447S534.87 391.764 388.805 207.67C242.739 23.575 100.644 333.402 326.001 405.283" stroke="#175073" stroke-opacity=".5"/><path d="M36.293 171.398s499.3 224.254 355.959 40.83C248.911 28.804 96.362 331.809 323.201 405.899" stroke="#175073" stroke-opacity=".5"/><path d="M35.42 171.329s500.841 228.153 360.248 45.43C255.075 34.035 92.098 330.17 320.382 406.455" stroke="#175073" stroke-opacity=".5"/><path d="M34.576 171.239s502.301 232.016 364.479 50.022C261.234 39.267 87.853 328.483 317.546 406.953" stroke="#175073" stroke-opacity=".5"/><path d="M33.762 171.126s503.679 235.841 368.651 54.606C267.385 44.498 83.63 326.748 314.694 407.389" stroke="#175073" stroke-opacity=".5"/><path d="M32.98 170.993s504.975 239.628 372.763 59.183C273.53 49.73 79.431 324.968 311.827 407.768" stroke="#175073" stroke-opacity=".5"/><path d="M32.229 170.842s506.191 243.376 376.815 63.749C279.668 54.964 75.256 323.145 308.948 408.09" stroke="#175073" stroke-opacity=".5"/><path d="M31.51 170.672s507.325 247.085 380.807 68.304c-126.518-178.78-341.21 82.302-106.261 169.378" stroke="#175073" stroke-opacity=".5"/><path d="M30.828 170.485s508.374 250.753 384.735 72.849C291.923 65.43 66.985 319.37 303.155 408.563" stroke="#175073" stroke-opacity=".5"/></svg>