<svg width="1302" height="820" fill="none" xmlns="http://www.w3.org/2000/svg"><path d="M1106.03 715.455s-83.38 40.294-178.189 22.555c-230.49-43.125 98.249-325.887-119.916-352.785-169.124-20.851 79.588 291.353-109.858 189.58-122.252-65.676-61.492-136.311-183.61-202.162-160.001-86.278-201.609 108.996-318.569 5.293-98.626-87.447 205.903-55.798 78.324-135.163-41.718-25.953-75.211-45.349-116.741-52.96-64.325-11.788-2.605 54.637-39.671 68.459-29.787 11.107-106.03 4.881-106.03 4.881" stroke="#175073" stroke-opacity=".5"/><path d="M1136.95 710.448s-115.41 16.839-217.391-14.203C671.625 620.78 1183.61 456.546 942.534 396.11c-186.888-46.851-41.566 244.377-214.838 129.973-111.815-73.828-8.733-118.692-120.312-192.633-146.192-96.879-284.36 49.852-372.534-53.054-74.352-86.775 264.877-7.071 153.172-92.666-36.528-27.989-66.516-49.324-111.262-62.795-69.308-20.866-28.161 42.678-77.581 46.934-39.714 3.42-125.426-15.195-125.426-15.195" stroke="#175073" stroke-opacity=".5"/><path d="M1107.73 714.881s-85.01 39.258-180.236 20.893c-231.509-44.647 106.436-322.252-113.002-350.711-170.115-22.062 73.71 289.48-115.079 187.031-121.828-66.111-58.952-135.634-180.641-201.918-159.439-86.846-205.807 106.392-321.441 2.626-97.507-87.5 208.94-53.62 82.047-133.346-41.494-26.071-74.839-45.575-116.556-53.461-64.616-12.215-3.859 54.142-41.557 67.539C90.971 264.3 14.209 257.5 14.209 257.5" stroke="#175073" stroke-opacity=".5"/><path d="M1109.28 714.562s-86.63 38.171-182.3 19.148c-232.581-46.247 114.49-318.434-106.272-348.534-171.14-23.333 67.981 287.514-120.226 184.355-121.452-66.57-56.484-134.924-177.792-201.664-158.94-87.443-209.982 103.656-324.354-.176-96.444-87.555 211.977-51.331 85.716-131.437-41.288-26.196-74.499-45.812-116.413-53.988-64.92-12.664-5.087 53.622-43.415 66.572-30.8 10.407-108.094 3.006-108.094 3.006" stroke="#175073" stroke-opacity=".5"/><path d="M1110.82 714.256s-88.24 37.078-184.341 17.399c-233.627-47.84 122.531-314.58-99.531-346.317-172.145-24.603 62.245 285.515-125.358 181.657-121.064-67.021-54.011-134.199-174.925-201.387-158.424-88.03-214.132 100.909-327.231-2.977-95.37-87.602 214.992-49.038 89.376-129.515-41.077-26.317-74.151-46.044-116.257-54.509-65.217-13.111-6.314 53.096-45.268 65.599-31.304 10.047-109.121 2.044-109.121 2.044" stroke="#175073" stroke-opacity=".5"/><path d="M1112.35 713.959s-89.84 35.982-186.36 15.65c-234.647-49.43 130.56-310.692-92.778-344.063-173.132-25.87 56.502 283.485-130.478 178.94-120.66-67.465-51.531-133.459-172.038-201.088-157.889-88.608-218.259 98.151-330.071-5.779-94.286-87.638 217.983-46.739 93.025-127.578-40.861-26.435-73.794-46.27-116.087-55.023-65.507-13.557-7.541 52.564-47.117 64.617-31.803 9.687-110.135 1.083-110.135 1.083" stroke="#175073" stroke-opacity=".5"/><path d="M1113.88 713.674s-91.44 34.882-188.366 13.899c-235.641-51.014 138.566-306.77-86.015-341.772-174.099-27.133 50.753 281.425-135.582 176.204-120.245-67.901-49.046-132.704-169.132-200.766-157.338-89.176-222.362 95.381-332.876-8.58-93.19-87.665 220.95-44.435 96.666-125.627-40.642-26.55-73.43-46.492-115.905-55.532-65.791-14.001-8.768 52.026-48.961 63.629-32.299 9.325-111.137.121-111.137.121" stroke="#175073" stroke-opacity=".5"/><path d="M1115.4 713.4s-93.02 33.778-190.349 12.145c-236.609-52.591 146.559-302.813-79.242-339.441-175.047-28.394 44.997 279.333-140.672 173.447-119.816-68.329-46.556-131.934-166.207-200.422-156.769-89.734-226.441 92.602-335.644-11.38-92.085-87.682 223.892-42.125 100.294-123.661-40.417-26.663-73.056-46.709-115.71-56.034-66.066-14.444-9.992 51.482-50.798 62.633-32.792 8.962-112.127-.84-112.127-.84" stroke="#175073" stroke-opacity=".5"/><path d="M1116.9 713.136s-94.58 32.67-192.299 10.391C687.05 669.363 1079.14 424.703 852.14 386.453c-175.976-29.652 39.237 277.21-145.747 170.671-119.373-68.75-44.059-131.15-163.263-200.056-156.183-90.282-230.494 89.812-338.374-14.179-90.969-87.689 226.81-39.811 103.912-121.682-40.189-26.772-72.675-46.92-115.502-56.53-66.335-14.885-11.217 50.932-52.631 61.631-33.281 8.597-113.105-1.802-113.105-1.802" stroke="#175073" stroke-opacity=".5"/><path d="M1118.4 712.882s-96.15 31.559-194.237 8.636c-238.467-55.73 162.507-294.801-65.672-334.669-176.885-30.906 33.473 275.056-150.805 167.877-118.917-69.164-41.559-130.352-160.302-199.669-155.579-90.82-234.522 87.012-341.067-16.976-89.843-87.687 229.703-37.492 107.518-119.69-39.955-26.878-72.286-47.126-115.281-57.02-66.595-15.324-12.439 50.378-54.457 60.623-33.766 8.232-114.07-2.764-114.07-2.764" stroke="#175073" stroke-opacity=".5"/><path d="M1119.89 712.639s-97.7 30.444-196.153 6.879c-239.356-57.289 170.443-290.745-58.876-332.226-177.774-32.158 27.706 272.871-155.845 165.063-118.449-69.57-39.054-129.539-157.324-199.258-154.958-91.348-238.523 84.202-343.721-19.771-88.708-87.675 232.569-35.171 111.112-117.685-39.717-26.982-71.889-47.327-115.048-57.503-66.849-15.762-13.661 49.817-56.278 59.606-34.247 7.867-115.021-3.725-115.021-3.725" stroke="#175073" stroke-opacity=".5"/><path d="M1121.37 712.406s-99.23 29.326-198.046 5.121C683.105 658.684 1101.7 430.87 871.251 387.78c-178.644-33.405 21.935 270.657-160.87 162.232-117.966-69.968-36.544-128.712-154.326-198.827-154.321-91.865-242.499 81.384-346.339-22.564-87.562-87.653 235.411-32.843 114.694-115.665-39.474-27.083-71.483-47.523-114.801-57.981-67.095-16.198-14.881 49.251-58.092 58.584-34.725 7.5-115.961-4.685-115.961-4.685" stroke="#175073" stroke-opacity=".5"/><path d="M1122.84 712.182s-100.76 28.204-199.918 3.364c-241.055-60.39 186.278-282.538-45.264-327.233-179.494-34.648 16.162 268.413-165.875 159.383-117.472-70.358-34.031-127.87-151.314-198.372-153.665-92.374-246.446 78.556-348.917-25.355-86.407-87.621 238.226-30.513 118.264-113.634-39.229-27.18-71.071-47.713-114.543-58.452-67.334-16.632-16.099 48.68-59.9 57.555-35.199 7.133-116.888-5.645-116.888-5.645" stroke="#175073" stroke-opacity=".5"/><path d="M1124.31 711.968s-102.29 27.08-201.777 1.605c-241.864-61.93 194.167-278.386-38.45-324.681-180.324-35.887 10.386 266.139-170.863 156.516-116.963-70.741-31.514-127.014-148.283-197.896-152.993-92.871-250.368 75.72-351.457-28.142-85.243-87.581 241.014-28.18 121.819-111.59-38.977-27.275-70.649-47.899-114.271-58.916-67.565-17.065-17.315 48.102-61.701 56.519-35.669 6.764-117.801-6.604-117.801-6.604" stroke="#175073" stroke-opacity=".5"/><path d="M1125.76 711.764s-103.79 25.952-203.604-.153c-242.647-63.464 202.024-274.205-31.632-322.094-181.135-37.123 4.61 263.835-175.833 153.632-116.442-71.116-28.992-126.144-145.236-197.398-152.304-93.358-254.261 72.875-353.958-30.927-84.069-87.53 243.777-25.844 125.362-109.534-38.722-27.367-70.221-48.078-113.987-59.374-67.789-17.495-18.53 47.521-63.495 55.479-36.135 6.394-118.702-7.564-118.702-7.564" stroke="#175073" stroke-opacity=".5"/><path d="M1127.19 711.569s-105.28 24.822-205.399-1.911c-243.403-64.991 209.869-269.994-24.811-319.471-181.925-38.355-1.167 261.503-180.782 150.731-115.908-71.483-26.468-125.261-142.173-196.879-151.599-93.835-258.127 70.022-356.421-33.708-82.885-87.469 246.512-23.504 128.892-107.465-38.463-27.455-69.785-48.253-113.691-59.825-68.005-17.924-19.742 46.933-65.282 54.43-36.597 6.025-119.59-8.521-119.59-8.521" stroke="#175073" stroke-opacity=".5"/><path d="M1128.62 711.382s-106.76 23.689-207.183-3.669c-244.131-66.509 217.683-265.751-17.986-316.812-182.695-39.582-6.944 259.141-185.711 147.813-115.362-71.842-23.942-124.363-139.095-196.337-150.876-94.301-261.964 67.161-358.843-36.485-81.692-87.399 249.22-21.163 132.406-105.385-38.199-27.541-69.34-48.422-113.381-60.27-68.214-18.35-20.952 46.34-67.063 53.377-37.054 5.654-120.464-9.479-120.464-9.479" stroke="#175073" stroke-opacity=".5"/><path d="M1130.04 711.205s-108.23 22.553-208.944-5.427c-244.833-68.021 225.474-261.48-11.16-314.118-183.445-40.806-12.72 256.75-190.621 144.878-114.801-72.193-21.411-123.451-136-195.773-150.136-94.757-265.772 64.293-361.225-39.259-80.491-87.319 251.899-18.818 135.905-103.293-37.931-27.623-68.888-48.586-113.059-60.707-68.415-18.775-22.16 45.742-68.835 52.317-37.509 5.283-121.325-10.435-121.325-10.435" stroke="#175073" stroke-opacity=".5"/><path d="M1131.45 711.037s-109.7 21.414-210.684-7.184c-245.508-69.526 233.244-257.18-4.333-311.39-184.175-42.025-18.495 254.331-195.508 141.927-114.23-72.535-18.88-122.526-132.892-195.188-149.38-95.203-269.55 61.418-363.568-42.028-79.28-87.229 254.552-16.471 139.39-101.189-37.658-27.703-68.429-48.744-112.724-61.139-68.609-19.197-23.366 45.14-70.6 51.252-37.959 4.912-122.173-11.389-122.173-11.389" stroke="#175073" stroke-opacity=".5"/><path d="M1132.84 710.877s-111.14 20.274-212.393-8.94c-246.156-71.023 240.993-252.851 2.496-308.627-184.885-43.239-24.268 251.884-200.375 138.961-113.645-72.87-16.345-121.587-129.768-194.581-148.608-95.638-273.298 58.536-365.871-44.792-78.061-87.131 257.177-14.124 142.86-99.075-37.382-27.779-67.962-48.897-112.377-61.563-68.795-19.618-24.569 44.531-72.358 50.18-38.404 4.54-123.007-12.342-123.007-12.342" stroke="#175073" stroke-opacity=".5"/><path d="M1134.22 710.726s-112.57 19.131-214.081-10.695c-246.776-72.512 248.711-248.495 9.324-305.831-185.573-44.447-30.038 249.41-205.219 135.981-113.047-73.198-13.809-120.636-126.63-193.954-147.819-96.062-277.016 55.647-368.132-47.551-76.834-87.022 259.772-11.774 146.313-96.949-37.102-27.853-67.487-49.046-112.018-61.981-68.974-20.036-25.769 43.919-74.107 49.104-38.845 4.166-123.827-13.295-123.827-13.295" stroke="#175073" stroke-opacity=".5"/><path d="M1135.59 710.583s-113.99 17.986-215.747-12.45c-247.368-73.992 256.397-244.11 16.151-302.999-186.241-45.652-35.804 246.907-210.04 132.983-112.438-73.516-11.272-119.669-123.478-193.303-147.013-96.476-280.704 52.752-370.354-50.306-75.596-86.903 262.339-9.423 149.751-94.812-36.817-27.923-67.005-49.188-111.646-62.392-69.145-20.452-26.967 43.301-75.848 48.022-39.282 3.793-124.634-14.246-124.634-14.246" stroke="#175073" stroke-opacity=".5"/></svg>