<svg width="1034" height="849" fill="none" xmlns="http://www.w3.org/2000/svg"><path d="M890.459 644.236s-358.73 96.392-221.19-13.198c137.541-109.59-74.243 8.629-26.598-117.719 47.646-126.347-408.078 161.21-352.687-35.915 55.391-197.125-127.847-146.704-56.358-340.231 71.489-193.526-178.535 116.13-178.535 116.13" stroke="#175073" stroke-opacity=".48"/><path d="M994.029 484.438S654.997 632.12 773.331 503.721c118.333-128.398-71.984 19.378-45.174-112.443 26.811-131.82-377.398 218.948-354.29 16.053 23.107-202.896-149.879-126.29-110.286-327.982 39.593-201.691-157.795 140.853-157.795 140.853" stroke="#175073" stroke-opacity=".48"/><path d="M895.472 636.513S537.49 735.409 674.187 624.86c136.696-110.548-74.176 9.148-27.501-117.529 46.675-126.677-406.831 164.057-352.953-33.451 53.877-197.507-128.969-145.807-58.966-339.827 70.002-194.02-177.64 117.374-177.64 117.374" stroke="#175073" stroke-opacity=".48"/><path d="M900.476 628.801s-357.213 101.394-221.369-10.107c135.845-111.5-74.103 9.666-28.401-117.334s-405.562 166.895-353.2-30.983c52.361-197.879-130.084-144.903-61.572-339.407C304.446-63.535 59.2 249.582 59.2 249.582" stroke="#175073" stroke-opacity=".48"/><path d="M905.472 621.099s-356.426 103.887-221.441-8.559c134.986-112.447-74.027 10.183-29.3-117.133 44.726-127.315-404.271 169.724-353.429-28.515 50.842-198.239-131.192-143.989-64.173-338.967 67.018-194.978-175.82 119.844-175.82 119.844" stroke="#175073" stroke-opacity=".48"/><path d="M910.459 613.409s-355.62 106.375-221.5-7.012c134.119-113.386-73.947 10.7-30.199-116.925 43.749-127.624-402.957 172.544-353.638-26.044 49.32-198.589-132.292-143.069-66.771-338.51S63.455 245.986 63.455 245.986" stroke="#175073" stroke-opacity=".48"/><path d="M915.437 605.73s-354.794 108.856-221.548-5.464c133.247-114.321-73.863 11.216-31.094-116.711 42.769-127.927-401.623 175.355-353.828-23.573C356.762 261.054 175.58 317.841 239.6 121.947 303.62-73.946 65.638 244.235 65.638 244.235" stroke="#175073" stroke-opacity=".48"/><path d="M920.408 598.062s-353.95 111.333-221.584-3.916c132.366-115.248-73.775 11.732-31.989-116.49 41.786-128.222-400.267 178.156-354-21.1 46.268-199.257-134.473-141.206-71.957-337.541 62.515-196.336-173.02 123.5-173.02 123.5" stroke="#175073" stroke-opacity=".48"/><path d="M925.37 590.406s-353.086 113.803-221.608-2.368c131.478-116.17-73.683 12.247-32.881-116.264 40.801-128.51-398.891 180.948-354.153-18.626 44.739-199.575-135.552-140.262-74.545-337.029C303.191-80.648 70.116 240.824 70.116 240.824" stroke="#175073" stroke-opacity=".48"/><path d="M930.324 582.761s-352.203 116.267-221.62-.819c130.583-117.086-73.587 12.761-33.773-116.031 39.815-128.793-397.491 183.73-354.285-16.152 43.206-199.882-136.625-139.311-77.129-336.499C303.014-83.928 72.411 239.164 72.411 239.164" stroke="#175073" stroke-opacity=".48"/><path d="M935.27 575.128s-351.302 118.724-221.62.729c129.681-117.995-73.488 13.275-34.662-115.792s-396.071 186.502-354.4-13.676c41.672-200.178-137.69-138.353-79.708-335.951C302.863-87.161 74.745 237.534 74.745 237.534" stroke="#175073" stroke-opacity=".48"/><path d="M940.208 567.506s-350.382 121.175-221.609 2.277-73.383 13.788-35.549-115.547c37.835-129.335-394.63 189.265-354.495-11.199 40.135-200.464-138.748-137.387-82.283-335.385C302.737-90.347 77.116 235.933 77.116 235.933" stroke="#175073" stroke-opacity=".48"/><path d="M945.138 559.895s-349.443 123.621-221.585 3.826c127.857-119.794-73.276 14.301-36.435-115.295 36.842-129.596-393.167 192.017-354.571-8.722 38.596-200.74-139.798-136.414-84.853-334.802 54.944-198.387-168.168 129.46-168.168 129.46" stroke="#175073" stroke-opacity=".48"/><path d="M950.061 552.296S601.575 678.354 728.51 557.67c126.936-120.685-73.164 14.812-37.317-115.038 35.846-129.849-391.685 194.759-354.63-6.244 37.056-201.004-140.84-135.434-87.419-334.2C302.566-96.578 81.974 232.82 81.974 232.82" stroke="#175073" stroke-opacity=".48"/><path d="M954.976 544.709s-347.509 128.49-221.503 6.922c126.006-121.569-73.049 15.323-38.199-114.774 34.849-130.097-390.18 197.49-354.668-3.767S198.73 298.644 250.626 99.51C302.521-99.624 84.462 231.306 84.462 231.306" stroke="#175073" stroke-opacity=".48"/><path d="M959.883 537.134s-346.514 130.914-221.444 8.469c125.07-122.446-72.929 15.833-39.079-114.504 33.851-130.337-388.654 200.211-354.687-1.289 33.968-201.499-142.903-133.451-92.536-332.942C302.503-102.623 86.988 229.821 86.988 229.821" stroke="#175073" stroke-opacity=".48"/><path d="M964.783 529.57S619.282 662.902 743.41 539.586c124.127-123.316-72.806 16.342-39.956-114.228 32.849-130.57-387.109 202.921-354.688 1.19 32.421-201.732-143.923-132.449-95.088-332.287C302.513-105.577 89.554 228.364 89.554 228.364" stroke="#175073" stroke-opacity=".48"/><path d="M969.675 522.018s-344.468 135.742-221.29 11.563c123.178-124.18-72.678 16.85-40.831-113.946 31.847-130.796-385.541 205.62-354.669 3.668C383.758 221.35 207.95 291.863 255.25 91.689 302.551-108.485 92.16 226.936 92.16 226.936" stroke="#175073" stroke-opacity=".48"/><path d="M974.561 514.478s-343.419 138.145-221.196 13.108c122.222-125.037-72.547 17.358-41.704-113.657 30.843-131.015-383.954 208.308-354.631 6.145 29.322-202.162-145.94-130.423-100.176-330.922 45.763-200.499-162.05 136.383-162.05 136.383" stroke="#175073" stroke-opacity=".48"/><path d="M979.438 506.95s-342.349 140.541-221.089 14.653c121.26-125.888-72.412 17.864-42.575-113.363 29.837-131.226-382.345 210.986-354.574 8.623 27.771-202.362-146.937-129.4-102.712-330.213C302.712-114.163 97.49 224.16 97.49 224.16" stroke="#175073" stroke-opacity=".48"/><path d="M984.309 499.434s-341.262 142.929-220.971 16.197c120.291-126.731-72.273 18.37-43.443-113.062 28.829-131.432-380.717 213.651-354.499 11.1 26.218-202.551-147.925-128.37-105.242-329.487 42.683-201.117-159.94 138.632-159.94 138.632" stroke="#175073" stroke-opacity=".48"/><path d="M989.173 491.93s-340.157 145.309-220.841 17.741c119.315-127.569-72.13 18.874-44.31-112.756 27.821-131.63-379.067 216.305-354.404 13.576 24.664-202.728-148.905-127.333-107.766-328.742C302.99-119.661 102.98 221.495 102.98 221.495" stroke="#175073" stroke-opacity=".48"/></svg>