<!-- Generated by IcoMoon.io -->
<svg version="1.1" xmlns="http://www.w3.org/2000/svg" width="37" height="32" viewBox="0 0 37 32">
<symbol id="icon-card" viewBox="0 0 37 32">
<path fill="#fff" style="fill: var(--color1, #fff)" d="M2.051 0h32.821c1.133 0 2.051 0.918 2.051 2.051v27.897c0 1.133-0.918 2.051-2.051 2.051h-32.821c-1.133 0-2.051-0.918-2.051-2.051v-27.897c0-1.133 0.918-2.051 2.051-2.051z"></path>
<path fill="#f9f8fa" style="fill: var(--color2, #f9f8fa)" d="M7.319 21.954v1.977h-0.263v-0.867h-1.037v0.867h-0.265v-1.977h0.265v0.859h1.037v-0.859h0.263zM8.351 23.959c-0.129 0-0.241-0.026-0.334-0.077-0.091-0.051-0.164-0.123-0.215-0.211l-0.001-0.003c-0.049-0.091-0.074-0.195-0.074-0.312 0-0.111 0.028-0.212 0.085-0.304s0.132-0.164 0.227-0.219c0.095-0.055 0.201-0.082 0.317-0.082 0.15 0 0.274 0.044 0.372 0.131s0.165 0.208 0.2 0.361l-0.933 0.328-0.060-0.15 0.766-0.279-0.055 0.036c-0.023-0.062-0.061-0.115-0.109-0.155l-0.001-0c-0.051-0.046-0.118-0.068-0.2-0.068-0.069 0-0.131 0.017-0.186 0.052-0.055 0.033-0.098 0.078-0.129 0.137s-0.046 0.125-0.046 0.2c0 0.078 0.016 0.148 0.049 0.208 0.033 0.058 0.078 0.105 0.134 0.14 0.058 0.033 0.124 0.049 0.197 0.049 0.049 0 0.097-0.009 0.142-0.027 0.050-0.019 0.093-0.043 0.133-0.072l-0.002 0.001 0.118 0.189c-0.056 0.038-0.12 0.069-0.191 0.093-0.061 0.022-0.132 0.035-0.205 0.036h-0zM9.717 23.959c-0.106 0-0.202-0.023-0.29-0.068-0.087-0.047-0.156-0.115-0.204-0.197l-0.001-0.003c-0.049-0.089-0.074-0.198-0.074-0.325 0-0.126 0.026-0.234 0.079-0.325 0.053-0.093 0.123-0.164 0.211-0.213 0.083-0.047 0.182-0.074 0.287-0.074 0.002 0 0.004 0 0.005 0h-0c0.106 0 0.195 0.025 0.268 0.074 0.073 0.047 0.129 0.104 0.167 0.17l-0.016 0.044 0.025-0.241h0.235v1.132h-0.254v-0.295l0.027 0.066c-0.007 0.018-0.024 0.042-0.049 0.071-0.024 0.027-0.056 0.056-0.098 0.085-0.040 0.029-0.086 0.054-0.135 0.072l-0.004 0.001c-0.053 0.018-0.112 0.027-0.178 0.027zM9.785 23.748c0.064 0 0.121-0.012 0.172-0.036s0.093-0.056 0.126-0.098c0.035-0.044 0.058-0.096 0.071-0.156v-0.222c-0.015-0.055-0.041-0.103-0.077-0.142l0 0c-0.035-0.041-0.079-0.073-0.129-0.095l-0.002-0.001c-0.048-0.022-0.105-0.036-0.165-0.036-0.002 0-0.004 0-0.005 0h0c-0.067 0-0.13 0.016-0.186 0.049s-0.102 0.078-0.137 0.137c-0.033 0.058-0.049 0.127-0.049 0.205 0 0.001-0 0.003-0 0.004 0 0.143 0.076 0.268 0.19 0.337l0.002 0.001c0.058 0.035 0.121 0.052 0.189 0.052zM10.849 21.815h0.254v2.117h-0.254v-2.117zM11.653 22.302h0.254v0.503h0.312v0.2h-0.312v0.927h-0.254v-0.927h-0.208v-0.2h0.208v-0.503zM12.527 23.932v-2.117h0.249v1.247l-0.005-0.047c0.038-0.075 0.097-0.137 0.175-0.186 0.080-0.049 0.174-0.074 0.282-0.074s0.195 0.032 0.263 0.096c0.069 0.062 0.105 0.143 0.107 0.243v0.837h-0.257v-0.747c-0.002-0.062-0.020-0.112-0.055-0.15-0.033-0.040-0.085-0.060-0.156-0.060-0.066 0-0.125 0.019-0.178 0.057-0.054 0.038-0.097 0.089-0.125 0.148l-0.001 0.002c-0.029 0.064-0.044 0.137-0.044 0.219v0.531h-0.255zM14.957 23.828c-0.051 0.040-0.112 0.072-0.183 0.096s-0.142 0.036-0.213 0.036c-0.124 0-0.232-0.025-0.325-0.074-0.091-0.048-0.166-0.118-0.217-0.203l-0.001-0.002c-0.051-0.089-0.077-0.194-0.077-0.315s0.027-0.225 0.082-0.315c0.054-0.087 0.128-0.156 0.216-0.204l0.003-0.002c0.091-0.049 0.189-0.074 0.293-0.074 0.091 0 0.172 0.013 0.243 0.038 0.073 0.026 0.135 0.060 0.186 0.104l-0.126 0.164c-0.035-0.026-0.074-0.049-0.117-0.067l-0.004-0.001c-0.046-0.019-0.099-0.030-0.154-0.030-0.002 0-0.005 0-0.007 0h0c-0.066 0-0.127 0.017-0.183 0.052-0.055 0.033-0.098 0.078-0.131 0.137-0.029 0.055-0.047 0.121-0.047 0.19 0 0.002 0 0.005 0 0.007v-0c0 0.069 0.016 0.134 0.049 0.194 0.033 0.058 0.078 0.105 0.137 0.14 0.058 0.033 0.125 0.049 0.2 0.049 0.049 0 0.094-0.007 0.134-0.022 0.042-0.015 0.079-0.035 0.112-0.060l0.131 0.161zM15.756 23.959c-0.106 0-0.202-0.023-0.29-0.068-0.086-0.047-0.156-0.115-0.204-0.197l-0.001-0.003c-0.049-0.089-0.074-0.198-0.074-0.325 0-0.126 0.027-0.234 0.079-0.325 0.053-0.093 0.123-0.164 0.211-0.213 0.083-0.047 0.182-0.074 0.288-0.074 0.002 0 0.004 0 0.005 0h-0c0.106 0 0.195 0.025 0.268 0.074 0.073 0.047 0.129 0.104 0.167 0.17l-0.016 0.044 0.025-0.241h0.235v1.132h-0.254v-0.295l0.027 0.066c-0.007 0.018-0.024 0.042-0.049 0.071-0.024 0.027-0.056 0.056-0.098 0.085-0.040 0.029-0.086 0.054-0.135 0.073l-0.004 0.001c-0.053 0.018-0.112 0.027-0.178 0.027zM15.824 23.748c0.002 0 0.004 0 0.006 0 0.060 0 0.117-0.013 0.169-0.037l-0.003 0.001c0.051-0.024 0.093-0.056 0.126-0.098 0.035-0.044 0.058-0.096 0.071-0.156v-0.222c-0.014-0.055-0.041-0.103-0.077-0.142l0 0c-0.035-0.041-0.079-0.073-0.129-0.095l-0.002-0.001c-0.048-0.022-0.105-0.036-0.165-0.036-0.002 0-0.004 0-0.005 0h0c-0.067 0-0.129 0.016-0.186 0.049s-0.103 0.080-0.136 0.135l-0.001 0.002c-0.033 0.058-0.049 0.127-0.049 0.205 0 0.001-0 0.003-0 0.004 0 0.143 0.076 0.268 0.19 0.337l0.002 0.001c0.058 0.035 0.121 0.052 0.189 0.052zM17.115 22.799l0.025 0.328-0.014-0.044c0.029-0.069 0.071-0.128 0.126-0.175 0.056-0.049 0.115-0.087 0.175-0.112 0.062-0.027 0.116-0.041 0.161-0.041l-0.014 0.252c-0.086-0.005-0.161 0.011-0.227 0.049-0.064 0.038-0.115 0.089-0.153 0.153-0.037 0.064-0.055 0.132-0.055 0.205v0.517h-0.252v-1.132h0.227zM18.394 23.959c-0.13 0-0.241-0.026-0.334-0.077-0.091-0.051-0.164-0.123-0.215-0.211l-0.001-0.003c-0.049-0.091-0.074-0.195-0.074-0.312 0-0.111 0.028-0.212 0.085-0.304s0.132-0.164 0.227-0.219c0.095-0.055 0.201-0.082 0.317-0.082 0.149 0 0.273 0.044 0.372 0.131s0.165 0.208 0.2 0.361l-0.933 0.328-0.060-0.15 0.766-0.279-0.055 0.036c-0.022-0.060-0.058-0.112-0.109-0.156-0.051-0.046-0.118-0.068-0.2-0.068-0.069 0-0.131 0.017-0.186 0.052-0.055 0.033-0.098 0.078-0.129 0.137s-0.047 0.125-0.047 0.2c0 0.078 0.016 0.148 0.049 0.208 0.033 0.058 0.078 0.105 0.134 0.14 0.058 0.033 0.124 0.049 0.197 0.049 0.049 0 0.097-0.009 0.142-0.027 0.047-0.018 0.091-0.042 0.131-0.071l0.118 0.189c-0.055 0.037-0.118 0.069-0.186 0.091l-0.005 0.002c-0.061 0.022-0.131 0.035-0.205 0.036h-0zM20.218 21.954h1.285v0.254h-1.020v0.602h0.911v0.254h-0.911v0.613h1.058v0.254h-1.324v-1.977zM22.366 23.221l0.271-0.421h0.257l-0.435 0.607-0.093-0.186zM22.937 23.932h-0.306l-0.862-1.132h0.315l0.853 1.132zM22.338 23.51l-0.298 0.421h-0.257l0.432-0.591 0.123 0.17zM23.717 23.959c-0.13 0-0.241-0.026-0.334-0.077-0.091-0.051-0.164-0.123-0.215-0.211l-0.001-0.003c-0.049-0.091-0.074-0.195-0.074-0.312 0-0.111 0.028-0.212 0.085-0.304s0.132-0.164 0.227-0.219c0.095-0.055 0.2-0.082 0.317-0.082 0.149 0 0.273 0.044 0.372 0.131s0.165 0.208 0.2 0.361l-0.933 0.328-0.060-0.15 0.766-0.279-0.055 0.036c-0.022-0.060-0.058-0.112-0.109-0.156-0.051-0.046-0.118-0.068-0.2-0.068-0.069 0-0.131 0.017-0.186 0.052-0.055 0.033-0.098 0.078-0.129 0.137s-0.047 0.125-0.047 0.2c0 0.078 0.016 0.148 0.049 0.208 0.033 0.058 0.077 0.105 0.134 0.14 0.058 0.033 0.124 0.049 0.197 0.049 0.049 0 0.097-0.009 0.142-0.027 0.047-0.018 0.091-0.042 0.131-0.071l0.118 0.189c-0.057 0.038-0.12 0.069-0.191 0.093-0.061 0.022-0.131 0.035-0.205 0.036h-0zM25.532 23.828c-0.051 0.040-0.112 0.072-0.183 0.096s-0.142 0.036-0.213 0.036c-0.124 0-0.232-0.025-0.325-0.074-0.091-0.048-0.166-0.118-0.217-0.203l-0.001-0.002c-0.051-0.089-0.077-0.194-0.077-0.315s0.027-0.225 0.082-0.315c0.054-0.087 0.128-0.156 0.216-0.204l0.003-0.002c0.091-0.049 0.189-0.074 0.293-0.074 0.091 0 0.172 0.013 0.243 0.038 0.073 0.026 0.135 0.060 0.186 0.104l-0.126 0.164c-0.035-0.026-0.074-0.049-0.117-0.067l-0.004-0.001c-0.046-0.019-0.099-0.030-0.154-0.030-0.003 0-0.005 0-0.008 0h0c-0.066 0-0.127 0.017-0.183 0.052-0.055 0.033-0.098 0.078-0.131 0.137-0.029 0.055-0.047 0.121-0.047 0.191 0 0.002 0 0.004 0 0.006v-0c0 0.069 0.016 0.134 0.049 0.194 0.033 0.058 0.078 0.105 0.137 0.14 0.058 0.033 0.125 0.049 0.2 0.049 0.049 0 0.094-0.007 0.134-0.022 0.042-0.015 0.079-0.035 0.112-0.060l0.131 0.161zM26.218 23.975c-0.102 0-0.187-0.031-0.254-0.093-0.066-0.064-0.1-0.146-0.104-0.246v-0.837h0.254v0.747c0.004 0.062 0.021 0.112 0.052 0.15 0.033 0.038 0.084 0.058 0.153 0.060 0.064 0 0.12-0.018 0.17-0.055 0.051-0.038 0.092-0.089 0.123-0.153 0.031-0.066 0.047-0.14 0.047-0.222v-0.528h0.254v1.132h-0.232l-0.022-0.279 0.014 0.049c-0.024 0.056-0.058 0.104-0.101 0.142l-0 0c-0.044 0.040-0.096 0.072-0.156 0.096s-0.126 0.036-0.197 0.036zM27.462 22.302h0.254v0.503h0.312v0.2h-0.312v0.927h-0.254v-0.927h-0.208v-0.2h0.208v-0.503zM28.336 22.799h0.254v1.132h-0.254v-1.132zM28.317 22.389c0-0.040 0.015-0.074 0.047-0.101 0.033-0.027 0.068-0.041 0.107-0.041s0.072 0.014 0.101 0.041c0.031 0.027 0.047 0.061 0.047 0.101 0 0.042-0.015 0.077-0.047 0.104-0.029 0.026-0.063 0.038-0.101 0.038s-0.074-0.014-0.107-0.041c-0.029-0.024-0.047-0.060-0.047-0.099 0-0.001 0-0.001 0-0.002v0zM29.49 23.964l-0.629-1.165h0.301l0.427 0.9-0.156-0.005 0.391-0.894h0.284l-0.604 1.165h-0.014zM30.88 23.959c-0.13 0-0.241-0.026-0.334-0.077-0.091-0.051-0.164-0.123-0.215-0.211l-0.001-0.003c-0.049-0.091-0.074-0.195-0.074-0.312 0-0.111 0.028-0.212 0.085-0.304s0.132-0.164 0.227-0.219c0.095-0.055 0.2-0.082 0.317-0.082 0.149 0 0.273 0.044 0.372 0.131s0.165 0.208 0.2 0.361l-0.933 0.328-0.060-0.15 0.766-0.279-0.055 0.036c-0.022-0.060-0.058-0.112-0.109-0.156-0.051-0.046-0.118-0.068-0.2-0.068-0.069 0-0.131 0.017-0.186 0.052-0.055 0.033-0.098 0.078-0.129 0.137s-0.047 0.125-0.047 0.2c0 0.078 0.016 0.148 0.049 0.208 0.033 0.058 0.077 0.105 0.134 0.14 0.058 0.033 0.124 0.049 0.197 0.049 0.049 0 0.097-0.009 0.142-0.027 0.047-0.018 0.091-0.042 0.131-0.071l0.118 0.189c-0.057 0.038-0.12 0.069-0.191 0.093-0.061 0.022-0.131 0.035-0.205 0.036h-0z"></path>
</symbol>
</svg>
