<svg width="270" height="234" viewBox="0 0 270 234" fill="none" xmlns="http://www.w3.org/2000/svg">
<g filter="url(#filter0_b_187_2685)">
<rect width="270" height="234" rx="15" fill="white" style="mix-blend-mode:soft-light"/>
<rect x="0.5" y="0.5" width="269" height="233" rx="14.5" stroke="url(#paint0_linear_187_2685)"/>
</g>
<path d="M112.931 54.4625L114.128 61.6362C114.898 66.2631 117.096 70.5334 120.413 73.85L126.563 80L125.111 82.9062C124.298 84.53 124.616 86.4912 125.899 87.7737L130.954 92.8287C131.741 93.6162 132.188 94.6925 132.188 95.81V99.8937C132.188 101.491 133.088 102.95 134.52 103.666L135.094 103.951C136.718 104.765 138.679 104.446 139.961 103.164L142.673 100.452C146.853 96.2709 149.819 91.0317 151.253 85.295C151.439 84.5513 151.412 83.7701 151.175 83.0411C150.937 82.3122 150.499 81.6649 149.91 81.1737L144.923 77.0187C143.981 76.2312 142.74 75.8975 141.529 76.1L137.141 76.8312C136.479 76.9415 135.8 76.8921 135.161 76.6873C134.522 76.4825 133.941 76.1282 133.466 75.6537L132.36 74.5475C131.968 74.1557 131.658 73.6907 131.446 73.1788C131.234 72.667 131.124 72.1184 131.124 71.5644C131.124 71.0103 131.234 70.4618 131.446 69.9499C131.658 69.4381 131.968 68.973 132.36 68.5812L132.848 68.0862C133.474 67.4595 134.283 67.046 135.158 66.9047C136.033 66.7633 136.93 66.9012 137.723 67.2987L139.984 68.4312C140.554 68.7174 141.199 68.8167 141.829 68.7151C142.458 68.6135 143.04 68.3161 143.49 67.8653C143.941 67.4144 144.239 66.833 144.34 66.2035C144.442 65.574 144.342 64.9286 144.056 64.3587L143.438 63.125L148.148 59.9862C150.59 58.3566 152.565 56.1179 153.878 53.4912L154.425 52.3962M112.931 54.4625C107.614 59.0573 103.864 65.1973 102.204 72.0258C100.544 78.8542 101.057 86.0306 103.671 92.5536C106.285 99.0766 110.87 104.621 116.787 108.413C122.703 112.205 129.656 114.056 136.674 113.707C143.693 113.358 150.428 110.827 155.939 106.467C161.45 102.107 165.463 96.1351 167.417 89.385C169.372 82.6349 169.17 75.4431 166.841 68.8129C164.512 62.1827 160.172 56.4412 154.425 52.3962M112.931 54.4625C119.057 49.154 126.894 46.2375 135 46.25C142.234 46.25 148.935 48.5225 154.425 52.3962" stroke="white" stroke-width="1.5" stroke-linecap="round" stroke-linejoin="round"/>
<path d="M53.52 160.54V175H51.6V168.66H44.02V175H42.08V160.54H44.02V166.82H51.6V160.54H53.52ZM61.0655 175.2C60.1188 175.2 59.3055 175.013 58.6255 174.64C57.9455 174.253 57.4188 173.733 57.0455 173.08C56.6855 172.413 56.5055 171.653 56.5055 170.8C56.5055 169.987 56.7121 169.247 57.1255 168.58C57.5388 167.913 58.0921 167.38 58.7855 166.98C59.4788 166.58 60.2521 166.38 61.1055 166.38C62.1988 166.38 63.1055 166.7 63.8255 167.34C64.5455 167.98 65.0321 168.86 65.2855 169.98L58.4655 172.38L58.0255 171.28L63.6255 169.24L63.2255 169.5C63.0655 169.06 62.7988 168.68 62.4255 168.36C62.0521 168.027 61.5655 167.86 60.9655 167.86C60.4588 167.86 60.0055 167.987 59.6055 168.24C59.2055 168.48 58.8921 168.813 58.6655 169.24C58.4388 169.667 58.3255 170.153 58.3255 170.7C58.3255 171.273 58.4455 171.78 58.6855 172.22C58.9255 172.647 59.2521 172.987 59.6655 173.24C60.0921 173.48 60.5721 173.6 61.1055 173.6C61.4655 173.6 61.8121 173.533 62.1455 173.4C62.4921 173.267 62.8121 173.093 63.1055 172.88L63.9655 174.26C63.5521 174.54 63.0855 174.767 62.5655 174.94C62.0588 175.113 61.5588 175.2 61.0655 175.2ZM71.0561 175.2C70.2828 175.2 69.5761 175.033 68.9361 174.7C68.3094 174.367 67.8094 173.88 67.4361 173.24C67.0761 172.587 66.8961 171.793 66.8961 170.86C66.8961 169.94 67.0894 169.147 67.4761 168.48C67.8628 167.8 68.3761 167.28 69.0161 166.92C69.6694 166.56 70.3828 166.38 71.1561 166.38C71.9294 166.38 72.5828 166.56 73.1161 166.92C73.6494 167.267 74.0561 167.68 74.3361 168.16L74.2161 168.48L74.3961 166.72H76.1161V175H74.2561V172.84L74.4561 173.32C74.4028 173.453 74.2828 173.627 74.0961 173.84C73.9228 174.04 73.6828 174.247 73.3761 174.46C73.0828 174.673 72.7428 174.853 72.3561 175C71.9694 175.133 71.5361 175.2 71.0561 175.2ZM71.5561 173.66C72.0228 173.66 72.4428 173.573 72.8161 173.4C73.1894 173.227 73.4961 172.987 73.7361 172.68C73.9894 172.36 74.1628 171.98 74.2561 171.54V169.92C74.1494 169.52 73.9628 169.173 73.6961 168.88C73.4294 168.573 73.1094 168.34 72.7361 168.18C72.3628 168.007 71.9494 167.92 71.4961 167.92C71.0028 167.92 70.5494 168.04 70.1361 168.28C69.7228 168.52 69.3894 168.853 69.1361 169.28C68.8961 169.707 68.7761 170.207 68.7761 170.78C68.7761 171.313 68.9028 171.8 69.1561 172.24C69.4094 172.68 69.7494 173.027 70.1761 173.28C70.6028 173.533 71.0628 173.66 71.5561 173.66ZM79.3348 159.52H81.1948V175H79.3348V159.52ZM85.213 163.08H87.073V166.76H89.353V168.22H87.073V175H85.213V168.22H83.693V166.76H85.213V163.08ZM91.6005 175V159.52H93.4205V168.64L93.3805 168.3C93.6605 167.753 94.0871 167.3 94.6605 166.94C95.2471 166.58 95.9338 166.4 96.7205 166.4C97.5071 166.4 98.1471 166.633 98.6405 167.1C99.1471 167.553 99.4071 168.147 99.4205 168.88V175H97.5405V169.54C97.5271 169.087 97.3938 168.72 97.1405 168.44C96.9005 168.147 96.5205 168 96.0005 168C95.5205 168 95.0871 168.14 94.7005 168.42C94.3138 168.687 94.0071 169.053 93.7805 169.52C93.5671 169.987 93.4605 170.52 93.4605 171.12V175H91.6005ZM109.375 174.24C109.002 174.533 108.555 174.767 108.035 174.94C107.515 175.113 106.995 175.2 106.475 175.2C105.568 175.2 104.775 175.02 104.095 174.66C103.415 174.3 102.882 173.8 102.495 173.16C102.122 172.507 101.935 171.74 101.935 170.86C101.935 169.98 102.135 169.213 102.535 168.56C102.948 167.907 103.482 167.407 104.135 167.06C104.802 166.7 105.515 166.52 106.275 166.52C106.942 166.52 107.535 166.613 108.055 166.8C108.588 166.987 109.042 167.24 109.415 167.56L108.495 168.76C108.255 168.573 107.962 168.407 107.615 168.26C107.268 168.113 106.875 168.04 106.435 168.04C105.955 168.04 105.508 168.167 105.095 168.42C104.695 168.66 104.375 168.993 104.135 169.42C103.908 169.847 103.795 170.327 103.795 170.86C103.795 171.367 103.915 171.84 104.155 172.28C104.395 172.707 104.728 173.047 105.155 173.3C105.582 173.54 106.068 173.66 106.615 173.66C106.975 173.66 107.302 173.607 107.595 173.5C107.902 173.393 108.175 173.247 108.415 173.06L109.375 174.24ZM115.216 175.2C114.443 175.2 113.736 175.033 113.096 174.7C112.47 174.367 111.97 173.88 111.596 173.24C111.236 172.587 111.056 171.793 111.056 170.86C111.056 169.94 111.25 169.147 111.636 168.48C112.023 167.8 112.536 167.28 113.176 166.92C113.83 166.56 114.543 166.38 115.316 166.38C116.09 166.38 116.743 166.56 117.276 166.92C117.81 167.267 118.216 167.68 118.496 168.16L118.376 168.48L118.556 166.72H120.276V175H118.416V172.84L118.616 173.32C118.563 173.453 118.443 173.627 118.256 173.84C118.083 174.04 117.843 174.247 117.536 174.46C117.243 174.673 116.903 174.853 116.516 175C116.13 175.133 115.696 175.2 115.216 175.2ZM115.716 173.66C116.183 173.66 116.603 173.573 116.976 173.4C117.35 173.227 117.656 172.987 117.896 172.68C118.15 172.36 118.323 171.98 118.416 171.54V169.92C118.31 169.52 118.123 169.173 117.856 168.88C117.59 168.573 117.27 168.34 116.896 168.18C116.523 168.007 116.11 167.92 115.656 167.92C115.163 167.92 114.71 168.04 114.296 168.28C113.883 168.52 113.55 168.853 113.296 169.28C113.056 169.707 112.936 170.207 112.936 170.78C112.936 171.313 113.063 171.8 113.316 172.24C113.57 172.68 113.91 173.027 114.336 173.28C114.763 173.533 115.223 173.66 115.716 173.66ZM125.155 166.72L125.335 169.12L125.235 168.8C125.448 168.293 125.755 167.867 126.155 167.52C126.568 167.16 126.995 166.887 127.435 166.7C127.888 166.5 128.282 166.4 128.615 166.4L128.515 168.24C127.888 168.2 127.335 168.32 126.855 168.6C126.388 168.88 126.015 169.253 125.735 169.72C125.468 170.187 125.335 170.687 125.335 171.22V175H123.495V166.72H125.155ZM134.503 175.2C133.556 175.2 132.743 175.013 132.063 174.64C131.383 174.253 130.856 173.733 130.483 173.08C130.123 172.413 129.943 171.653 129.943 170.8C129.943 169.987 130.15 169.247 130.563 168.58C130.976 167.913 131.53 167.38 132.223 166.98C132.916 166.58 133.69 166.38 134.543 166.38C135.636 166.38 136.543 166.7 137.263 167.34C137.983 167.98 138.47 168.86 138.723 169.98L131.903 172.38L131.463 171.28L137.063 169.24L136.663 169.5C136.503 169.06 136.236 168.68 135.863 168.36C135.49 168.027 135.003 167.86 134.403 167.86C133.896 167.86 133.443 167.987 133.043 168.24C132.643 168.48 132.33 168.813 132.103 169.24C131.876 169.667 131.763 170.153 131.763 170.7C131.763 171.273 131.883 171.78 132.123 172.22C132.363 172.647 132.69 172.987 133.103 173.24C133.53 173.48 134.01 173.6 134.543 173.6C134.903 173.6 135.25 173.533 135.583 173.4C135.93 173.267 136.25 173.093 136.543 172.88L137.403 174.26C136.99 174.54 136.523 174.767 136.003 174.94C135.496 175.113 134.996 175.2 134.503 175.2ZM147.842 160.54H157.242V162.4H149.782V166.8H156.442V168.66H149.782V173.14H157.522V175H147.842V160.54ZM163.549 169.8L165.529 166.72H167.409L164.229 171.16L163.549 169.8ZM167.729 175H165.489L159.189 166.72H161.489L167.729 175ZM163.349 171.92L161.169 175H159.289L162.449 170.68L163.349 171.92ZM173.429 175.2C172.482 175.2 171.669 175.013 170.989 174.64C170.309 174.253 169.782 173.733 169.409 173.08C169.049 172.413 168.869 171.653 168.869 170.8C168.869 169.987 169.075 169.247 169.489 168.58C169.902 167.913 170.455 167.38 171.149 166.98C171.842 166.58 172.615 166.38 173.469 166.38C174.562 166.38 175.469 166.7 176.189 167.34C176.909 167.98 177.395 168.86 177.649 169.98L170.829 172.38L170.389 171.28L175.989 169.24L175.589 169.5C175.429 169.06 175.162 168.68 174.789 168.36C174.415 168.027 173.929 167.86 173.329 167.86C172.822 167.86 172.369 167.987 171.969 168.24C171.569 168.48 171.255 168.813 171.029 169.24C170.802 169.667 170.689 170.153 170.689 170.7C170.689 171.273 170.809 171.78 171.049 172.22C171.289 172.647 171.615 172.987 172.029 173.24C172.455 173.48 172.935 173.6 173.469 173.6C173.829 173.6 174.175 173.533 174.509 173.4C174.855 173.267 175.175 173.093 175.469 172.88L176.329 174.26C175.915 174.54 175.449 174.767 174.929 174.94C174.422 175.113 173.922 175.2 173.429 175.2ZM186.699 174.24C186.326 174.533 185.879 174.767 185.359 174.94C184.839 175.113 184.319 175.2 183.799 175.2C182.893 175.2 182.099 175.02 181.419 174.66C180.739 174.3 180.206 173.8 179.819 173.16C179.446 172.507 179.259 171.74 179.259 170.86C179.259 169.98 179.459 169.213 179.859 168.56C180.273 167.907 180.806 167.407 181.459 167.06C182.126 166.7 182.839 166.52 183.599 166.52C184.266 166.52 184.859 166.613 185.379 166.8C185.913 166.987 186.366 167.24 186.739 167.56L185.819 168.76C185.579 168.573 185.286 168.407 184.939 168.26C184.593 168.113 184.199 168.04 183.759 168.04C183.279 168.04 182.833 168.167 182.419 168.42C182.019 168.66 181.699 168.993 181.459 169.42C181.233 169.847 181.119 170.327 181.119 170.86C181.119 171.367 181.239 171.84 181.479 172.28C181.719 172.707 182.053 173.047 182.479 173.3C182.906 173.54 183.393 173.66 183.939 173.66C184.299 173.66 184.626 173.607 184.919 173.5C185.226 173.393 185.499 173.247 185.739 173.06L186.699 174.24ZM191.72 175.32C190.974 175.32 190.354 175.093 189.86 174.64C189.38 174.173 189.127 173.573 189.1 172.84V166.72H190.96V172.18C190.987 172.633 191.114 173 191.34 173.28C191.58 173.56 191.954 173.707 192.46 173.72C192.927 173.72 193.34 173.587 193.7 173.32C194.074 173.04 194.374 172.667 194.6 172.2C194.827 171.72 194.94 171.18 194.94 170.58V166.72H196.8V175H195.1L194.94 172.96L195.04 173.32C194.88 173.707 194.634 174.053 194.3 174.36C193.98 174.653 193.6 174.887 193.16 175.06C192.72 175.233 192.24 175.32 191.72 175.32ZM200.818 163.08H202.678V166.76H204.958V168.22H202.678V175H200.818V168.22H199.298V166.76H200.818V163.08ZM207.206 166.72H209.066V175H207.206V166.72ZM207.066 163.72C207.066 163.427 207.179 163.18 207.406 162.98C207.646 162.78 207.906 162.68 208.186 162.68C208.466 162.68 208.713 162.78 208.926 162.98C209.153 163.18 209.266 163.427 209.266 163.72C209.266 164.027 209.153 164.28 208.926 164.48C208.713 164.667 208.466 164.76 208.186 164.76C207.906 164.76 207.646 164.66 207.406 164.46C207.179 164.26 207.066 164.013 207.066 163.72ZM215.644 175.24L211.044 166.72H213.244L216.364 173.3L215.224 173.26L218.084 166.72H220.164L215.744 175.24H215.644ZM225.812 175.2C224.865 175.2 224.052 175.013 223.372 174.64C222.692 174.253 222.165 173.733 221.792 173.08C221.432 172.413 221.252 171.653 221.252 170.8C221.252 169.987 221.458 169.247 221.872 168.58C222.285 167.913 222.838 167.38 223.532 166.98C224.225 166.58 224.998 166.38 225.852 166.38C226.945 166.38 227.852 166.7 228.572 167.34C229.292 167.98 229.778 168.86 230.032 169.98L223.212 172.38L222.772 171.28L228.372 169.24L227.972 169.5C227.812 169.06 227.545 168.68 227.172 168.36C226.798 168.027 226.312 167.86 225.712 167.86C225.205 167.86 224.752 167.987 224.352 168.24C223.952 168.48 223.638 168.813 223.412 169.24C223.185 169.667 223.072 170.153 223.072 170.7C223.072 171.273 223.192 171.78 223.432 172.22C223.672 172.647 223.998 172.987 224.412 173.24C224.838 173.48 225.318 173.6 225.852 173.6C226.212 173.6 226.558 173.533 226.892 173.4C227.238 173.267 227.558 173.093 227.852 172.88L228.712 174.26C228.298 174.54 227.832 174.767 227.312 174.94C226.805 175.113 226.305 175.2 225.812 175.2Z" fill="#F9F8FA"/>
<defs>
<filter id="filter0_b_187_2685" x="-70" y="-70" width="410" height="374" filterUnits="userSpaceOnUse" color-interpolation-filters="sRGB">
<feFlood flood-opacity="0" result="BackgroundImageFix"/>
<feGaussianBlur in="BackgroundImageFix" stdDeviation="35"/>
<feComposite in2="SourceAlpha" operator="in" result="effect1_backgroundBlur_187_2685"/>
<feBlend mode="normal" in="SourceGraphic" in2="effect1_backgroundBlur_187_2685" result="shape"/>
</filter>
<linearGradient id="paint0_linear_187_2685" x1="183" y1="202" x2="87" y2="117" gradientUnits="userSpaceOnUse">
<stop stop-color="#D5E9F5"/>
<stop offset="1" stop-color="#D5E9F5" stop-opacity="0"/>
</linearGradient>
</defs>
</svg>
