<svg aria-hidden="true" style="position: absolute; width: 0; height: 0; overflow: hidden;" version="1.1" xmlns="http://www.w3.org/2000/svg" xmlns:xlink="http://www.w3.org/1999/xlink">
<defs>
<symbol id="icon-icon-_linkedin" viewBox="0 0 34 32">
<path stroke-linejoin="round" stroke-linecap="round" stroke-miterlimit="4" stroke-width="2" d="M23 11c2.387 0 4.676 0.948 6.364 2.636s2.636 3.977 2.636 6.364v10.5h-6v-10.5c0-0.796-0.316-1.559-0.879-2.121s-1.326-0.879-2.121-0.879c-0.796 0-1.559 0.316-2.121 0.879s-0.879 1.326-0.879 2.121v10.5h-6v-10.5c0-2.387 0.948-4.676 2.636-6.364s3.977-2.636 6.364-2.636z"></path>
<path stroke-linejoin="round" stroke-linecap="round" stroke-miterlimit="4" stroke-width="2" d="M8 12.5h-6v18h6v-18z"></path>
<path stroke-linejoin="round" stroke-linecap="round" stroke-miterlimit="4" stroke-width="2" d="M5 8c1.657 0 3-1.343 3-3s-1.343-3-3-3c-1.657 0-3 1.343-3 3s1.343 3 3 3z"></path>
</symbol>
<symbol id="icon-icon-_mail" viewBox="0 0 38 32">
<path stroke-linejoin="round" stroke-linecap="round" stroke-miterlimit="4" stroke-width="2.1333" d="M5.547 2.133h27.307c1.877 0 3.413 1.536 3.413 3.413v20.48c0 1.877-1.536 3.413-3.413 3.413h-27.307c-1.877 0-3.413-1.536-3.413-3.413v-20.48c0-1.877 1.536-3.413 3.413-3.413z"></path>
<path stroke-linejoin="round" stroke-linecap="round" stroke-miterlimit="4" stroke-width="2.1333" d="M36.267 5.547l-17.067 11.947-17.067-11.947"></path>
</symbol>
</defs>
</svg>
