<svg width="1104" height="1118" viewBox="0 0 1104 1118" fill="none" xmlns="http://www.w3.org/2000/svg">
<path d="M155.564 166.6C155.564 166.6 589.22 460.362 462.423 227.561C335.627 -5.23948 210.315 368.351 406.794 467.15C603.273 565.949 529.458 377.556 622.706 476.683C715.954 575.81 662.828 560.922 683.27 655.028C703.712 749.135 932.462 593.052 936.366 701.828C940.271 810.604 658.612 1006.62 847.252 1055.1C978.013 1088.7 1012.58 916.834 1012.58 916.834" stroke="#175073" stroke-opacity="0.5"/>
<path d="M135.687 161.366C135.687 161.366 583.477 546.794 510.334 341.72C437.192 136.647 127.451 313.571 343.825 466.632C560.199 619.694 538.415 467.066 620.557 572.556C702.699 678.046 639.542 644.096 629.08 712.733C618.617 781.37 977.173 789.092 939.457 859.3C901.742 929.508 458.747 922.41 684.732 1040.2C841.381 1121.85 953.895 1029.78 953.895 1029.78" stroke="#175073" stroke-opacity="0.5"/>
<path d="M154.544 166.361C154.544 166.361 589.364 464.865 465.013 233.141C340.662 1.41725 206.319 365.95 403.976 467.473C601.633 568.995 530.244 382.116 623.061 481.66C715.877 581.203 662.209 565.38 681.183 658.364C700.158 751.349 935.421 602.982 937.323 710.021C939.225 817.061 649.475 1003.51 840.125 1055.38C972.28 1091.34 1010.65 923.122 1010.65 923.122" stroke="#175073" stroke-opacity="0.5"/>
<path d="M153.311 166.293C153.311 166.293 589.46 469.653 467.504 238.917C345.549 8.18114 202.132 363.796 401.041 468.081C599.951 572.366 530.959 386.928 623.379 486.927C715.8 586.925 661.569 570.161 679.085 662.059C696.601 753.957 938.46 613.25 938.363 718.593C938.265 823.937 640.321 1000.89 833.052 1056.18C966.65 1094.5 1008.82 929.869 1008.82 929.869" stroke="#175073" stroke-opacity="0.5"/>
<path d="M152.102 166.2C152.102 166.2 589.51 474.366 469.969 244.656C350.429 14.9454 197.963 361.585 398.092 468.616C598.221 575.646 531.637 391.68 623.647 492.117C715.657 592.554 660.872 574.852 676.927 665.648C692.982 756.444 941.398 623.419 939.301 727.05C937.204 830.681 631.113 998.117 825.895 1056.8C960.914 1097.48 1006.89 936.468 1006.89 936.468" stroke="#175073" stroke-opacity="0.5"/>
<path d="M150.92 166.083C150.92 166.083 589.515 479.006 472.41 250.358C355.304 21.71 193.813 359.318 395.129 469.077C596.446 578.835 532.28 396.37 623.865 497.23C715.449 598.089 660.119 579.452 674.71 669.132C689.301 758.812 944.233 633.491 940.138 735.392C936.042 837.293 621.854 995.179 818.654 1057.26C955.073 1100.29 1004.84 942.918 1004.84 942.918" stroke="#175073" stroke-opacity="0.5"/>
<path d="M149.765 165.942C149.765 165.942 589.477 483.572 474.825 256.023C360.173 28.4752 189.683 356.997 392.154 469.466C594.626 581.934 532.889 401.001 624.033 502.266C715.177 603.531 659.311 583.962 672.435 672.512C685.56 761.061 946.968 643.464 940.874 743.619C934.779 843.774 612.546 992.085 811.333 1057.55C949.128 1102.92 1002.68 949.218 1002.68 949.218" stroke="#175073" stroke-opacity="0.5"/>
<path d="M148.638 165.78C148.638 165.78 589.395 488.064 477.215 261.652C365.036 35.2406 185.573 354.623 389.167 469.784C592.761 584.944 533.463 405.571 624.152 507.226C714.84 608.881 658.447 588.383 670.103 675.787C681.76 763.191 949.601 653.337 941.509 751.73C933.417 850.122 603.191 988.834 803.932 1057.67C943.082 1105.38 1000.41 955.37 1000.41 955.37" stroke="#175073" stroke-opacity="0.5"/>
<path d="M147.54 165.597C147.54 165.597 589.271 492.483 479.582 267.244C369.893 42.0063 181.488 352.198 386.171 470.031C590.854 587.865 534.005 410.082 624.223 512.109C714.442 614.137 657.531 592.714 667.717 678.959C677.903 765.204 952.133 663.111 942.045 759.725C931.957 856.339 593.791 985.429 796.454 1057.63C936.936 1107.67 998.031 961.372 998.031 961.372" stroke="#175073" stroke-opacity="0.5"/>
<path d="M146.472 165.393C146.472 165.393 589.104 496.828 481.924 272.8C374.743 48.7713 177.427 349.721 383.165 470.209C588.904 590.697 534.513 414.532 624.247 516.916C713.981 619.3 656.561 596.954 665.275 682.026C673.989 767.098 954.564 672.783 942.482 767.603C930.399 862.423 584.349 981.87 788.9 1057.42C930.692 1109.78 995.544 967.225 995.544 967.225" stroke="#175073" stroke-opacity="0.5"/>
<path d="M145.435 165.17C145.435 165.17 588.897 501.101 484.243 278.318C379.588 55.5361 173.391 347.196 380.152 470.318C586.913 593.44 534.989 418.922 624.224 521.646C713.459 624.371 655.54 601.106 662.78 684.991C670.021 768.876 956.896 682.353 942.821 775.364C928.746 868.375 574.867 978.16 781.274 1057.04C924.352 1111.73 992.95 972.929 992.95 972.929" stroke="#175073" stroke-opacity="0.5"/>
<path d="M144.429 164.929C144.429 164.929 588.65 505.3 486.538 283.8C384.426 62.3005 169.383 344.622 377.133 470.359C584.883 596.096 535.433 423.254 624.155 526.301C712.876 629.348 654.467 605.169 660.233 687.854C666 770.538 959.127 691.822 943.062 783.008C926.997 874.194 565.346 974.3 773.576 1056.51C917.917 1113.5 990.25 978.483 990.25 978.483" stroke="#175073" stroke-opacity="0.5"/>
<path d="M143.455 164.67C143.455 164.67 588.363 509.428 488.81 289.246C389.257 69.0647 165.402 342.003 374.108 470.334C582.813 598.666 535.847 427.526 624.04 530.88C712.233 634.234 653.344 609.144 657.635 690.614C661.925 772.084 961.259 701.188 943.206 790.535C925.153 879.882 555.789 970.291 765.807 1055.81C911.388 1115.09 987.445 983.889 987.445 983.889" stroke="#175073" stroke-opacity="0.5"/>
<path d="M142.515 164.396C142.515 164.396 588.036 513.484 491.059 294.656C394.081 75.8281 161.451 339.339 371.078 470.244C580.705 601.148 536.229 431.74 623.88 535.383C711.531 639.027 652.171 613.031 654.986 693.273C657.8 773.516 963.291 710.451 943.253 797.944C923.215 885.438 546.199 966.136 757.971 1054.96C904.768 1116.52 984.536 989.146 984.536 989.146" stroke="#175073" stroke-opacity="0.5"/>
<path d="M141.609 164.107C141.609 164.107 587.673 517.468 493.286 300.029C398.9 82.5908 157.532 336.631 368.047 470.088C578.561 603.545 536.583 435.895 623.677 539.811C710.772 643.728 650.95 616.829 652.288 695.832C653.626 774.834 965.224 719.611 943.205 805.236C921.185 890.861 536.578 961.836 750.07 1053.94C898.06 1117.78 981.526 994.254 981.526 994.254" stroke="#175073" stroke-opacity="0.5"/>
<path d="M140.738 163.803C140.738 163.803 587.271 521.38 495.491 305.366C403.711 89.3523 153.645 333.881 365.013 469.868C576.38 605.856 536.907 439.992 623.431 544.164C709.955 648.337 649.682 620.54 649.543 698.289C649.404 776.039 967.059 728.666 943.061 812.409C919.064 896.152 526.927 957.392 742.105 1052.76C891.263 1118.87 978.414 999.212 978.414 999.212" stroke="#175073" stroke-opacity="0.5"/>
<path d="M139.902 163.486C139.902 163.486 586.833 525.221 497.674 310.667C408.515 96.1133 149.791 331.091 361.978 469.587C574.165 608.083 537.203 444.031 623.142 548.443C709.081 652.854 648.366 624.164 646.75 700.648C645.135 777.132 968.795 737.616 942.823 819.464C916.852 901.312 517.249 952.806 734.078 1051.43C884.38 1119.8 975.201 1004.02 975.201 1004.02" stroke="#175073" stroke-opacity="0.5"/>
<path d="M139.104 163.157C139.104 163.157 586.359 528.991 499.836 315.932C413.313 102.872 145.973 328.26 358.945 469.242C571.916 610.224 537.471 448.012 622.811 552.646C708.152 657.28 647.005 627.7 643.913 702.906C640.821 778.112 970.434 746.461 942.492 826.4C914.551 906.339 507.548 948.08 725.992 1049.94C877.414 1120.55 971.891 1008.68 971.891 1008.68" stroke="#175073" stroke-opacity="0.5"/>
<path d="M138.343 162.817C138.343 162.817 585.85 532.691 501.976 321.161C418.103 109.63 142.191 325.392 355.912 468.837C569.634 612.283 537.711 451.936 622.44 556.775C707.168 661.614 645.599 631.15 641.031 705.066C636.462 778.982 971.974 755.2 942.068 833.218C912.162 911.235 497.823 943.215 717.847 1048.3C870.364 1121.14 968.482 1013.2 968.482 1013.2" stroke="#175073" stroke-opacity="0.5"/>
<path d="M137.619 162.467C137.619 162.467 585.306 536.321 504.096 326.354C422.886 116.387 138.446 322.488 352.883 468.373C567.32 614.259 537.925 455.803 622.027 560.831C706.129 665.858 644.148 634.515 638.105 707.129C632.061 779.742 973.418 763.834 941.552 839.917C909.685 916 488.078 938.215 709.647 1046.5C863.234 1121.56 964.977 1017.56 964.977 1017.56" stroke="#175073" stroke-opacity="0.5"/>
<path d="M136.935 162.107C136.935 162.107 584.729 539.881 506.195 331.512C427.662 123.142 134.74 319.549 349.858 467.85C564.975 616.152 538.114 459.613 621.576 564.812C705.038 670.011 642.655 637.794 635.137 709.093C627.619 780.392 974.766 772.36 940.944 846.497C907.122 920.633 478.316 933.079 701.393 1044.55C856.026 1121.82 961.376 1021.78 961.376 1021.78" stroke="#175073" stroke-opacity="0.5"/>
<path d="M136.291 161.74C136.291 161.74 584.119 543.372 508.275 336.634C432.431 129.895 131.075 316.576 346.838 467.269C562.602 617.963 538.277 463.368 621.086 568.721C703.894 674.074 641.119 640.987 632.129 710.961C623.138 780.935 976.018 780.78 940.246 852.958C904.474 925.136 468.538 927.81 693.088 1042.45C848.741 1121.92 957.682 1025.85 957.682 1025.85" stroke="#175073" stroke-opacity="0.5"/>
</svg>
