<svg width="1034" height="849" viewBox="0 0 1034 849" fill="none" xmlns="http://www.w3.org/2000/svg">
<path d="M890.459 644.236C890.459 644.236 531.729 740.628 669.269 631.038C806.81 521.448 595.026 639.667 642.671 513.319C690.317 386.972 234.593 674.529 289.984 477.404C345.375 280.279 162.137 330.7 233.626 137.173C305.115 -56.3529 55.0913 253.303 55.0913 253.303" stroke="#175073" stroke-opacity="0.48"/>
<path d="M994.029 484.438C994.029 484.438 654.997 632.12 773.331 503.721C891.664 375.323 701.347 523.099 728.157 391.278C754.968 259.458 350.759 610.226 373.867 407.331C396.974 204.435 223.988 281.041 263.581 79.3493C303.174 -122.342 105.786 220.202 105.786 220.202" stroke="#175073" stroke-opacity="0.48"/>
<path d="M895.472 636.513C895.472 636.513 537.49 735.409 674.187 624.86C810.883 514.312 600.011 634.008 646.686 507.331C693.361 380.654 239.855 671.388 293.733 473.88C347.61 276.373 164.764 328.073 234.767 134.053C304.769 -59.9679 57.1274 251.427 57.1274 251.427" stroke="#175073" stroke-opacity="0.48"/>
<path d="M900.476 628.801C900.476 628.801 543.263 730.195 679.107 618.694C814.952 507.194 605.004 628.36 650.706 501.36C696.408 374.36 245.144 668.255 297.506 470.377C349.867 272.498 167.422 325.474 235.934 130.97C304.446 -63.5345 59.2 249.582 59.2 249.582" stroke="#175073" stroke-opacity="0.48"/>
<path d="M905.472 621.099C905.472 621.099 549.046 724.986 684.031 612.54C819.017 500.093 610.004 622.723 654.731 495.407C699.457 368.092 250.46 665.131 301.302 466.892C352.144 268.653 170.11 322.903 237.129 127.925C304.147 -67.0531 61.309 247.769 61.309 247.769" stroke="#175073" stroke-opacity="0.48"/>
<path d="M910.459 613.409C910.459 613.409 554.839 719.784 688.959 606.397C823.078 493.011 615.012 617.097 658.76 489.472C702.509 361.848 255.803 662.016 305.122 463.428C354.442 264.839 172.83 320.359 238.351 124.918C303.872 -70.5234 63.4551 245.986 63.4551 245.986" stroke="#175073" stroke-opacity="0.48"/>
<path d="M915.437 605.73C915.437 605.73 560.643 714.586 693.889 600.266C827.136 485.945 620.026 611.482 662.795 483.555C705.564 355.628 261.172 658.91 308.967 459.982C356.762 261.054 175.58 317.841 239.6 121.947C303.62 -73.9462 65.6377 244.235 65.6377 244.235" stroke="#175073" stroke-opacity="0.48"/>
<path d="M920.408 598.062C920.408 598.062 566.458 709.395 698.824 594.146C831.19 478.898 625.049 605.878 666.835 477.656C708.621 349.434 266.568 655.812 312.835 456.556C359.103 257.299 178.362 315.35 240.878 119.015C303.393 -77.3207 67.8581 242.515 67.8581 242.515" stroke="#175073" stroke-opacity="0.48"/>
<path d="M925.37 590.406C925.37 590.406 572.284 704.209 703.762 588.038C835.24 471.868 630.079 600.285 670.881 471.774C711.682 343.264 271.99 652.722 316.728 453.148C361.467 253.573 181.176 312.886 242.183 116.119C303.191 -80.648 70.1158 240.824 70.1158 240.824" stroke="#175073" stroke-opacity="0.48"/>
<path d="M930.324 582.761C930.324 582.761 578.121 699.028 708.704 581.942C839.287 464.856 635.117 594.703 674.931 465.911C714.746 337.118 277.44 649.641 320.646 449.759C363.852 249.877 184.021 310.448 243.517 113.26C303.014 -83.928 72.4111 239.164 72.4111 239.164" stroke="#175073" stroke-opacity="0.48"/>
<path d="M935.27 575.128C935.27 575.128 583.968 693.852 713.65 575.857C843.331 457.862 640.162 589.132 678.988 460.065C717.814 330.998 282.917 646.567 324.588 446.389C366.26 246.211 186.898 308.036 244.88 110.438C302.863 -87.1606 74.7445 237.534 74.7445 237.534" stroke="#175073" stroke-opacity="0.48"/>
<path d="M940.208 567.506C940.208 567.506 589.826 688.681 718.599 569.783C847.372 450.885 645.216 583.571 683.05 454.236C720.885 324.901 288.42 643.501 328.555 443.037C368.69 242.573 189.807 305.65 246.272 107.652C302.737 -90.3466 77.1159 235.933 77.1159 235.933" stroke="#175073" stroke-opacity="0.48"/>
<path d="M945.138 559.895C945.138 559.895 595.695 683.516 723.553 563.721C851.41 443.927 650.277 578.022 687.118 448.426C723.96 318.83 293.951 640.443 332.547 439.704C371.143 238.964 192.749 303.29 247.694 104.902C302.638 -93.4853 79.5258 234.362 79.5258 234.362" stroke="#175073" stroke-opacity="0.48"/>
<path d="M950.061 552.296C950.061 552.296 601.575 678.354 728.51 557.67C855.446 436.985 655.346 572.482 691.193 442.632C727.039 312.783 299.508 637.391 336.563 436.388C373.619 235.384 195.723 300.954 249.144 102.188C302.566 -96.578 81.9742 232.82 81.9742 232.82" stroke="#175073" stroke-opacity="0.48"/>
<path d="M954.976 544.709C954.976 544.709 607.467 673.199 733.473 551.631C859.479 430.062 660.424 566.954 695.274 436.857C730.123 306.76 305.094 634.347 340.606 433.09C376.118 231.833 198.73 298.644 250.626 99.5103C302.521 -99.6237 84.4619 231.306 84.4619 231.306" stroke="#175073" stroke-opacity="0.48"/>
<path d="M959.883 537.134C959.883 537.134 613.369 668.048 738.439 545.603C863.509 423.157 665.51 561.436 699.36 431.099C733.211 300.762 310.706 631.31 344.673 429.81C378.641 228.311 201.77 296.359 252.137 96.868C302.503 -102.623 86.9884 229.821 86.9884 229.821" stroke="#175073" stroke-opacity="0.48"/>
<path d="M964.783 529.57C964.783 529.57 619.282 662.902 743.41 539.586C867.537 416.27 670.604 555.928 703.454 425.358C736.303 294.788 316.345 628.279 348.766 426.548C381.187 224.816 204.843 294.099 253.678 94.2608C302.513 -105.577 89.5541 228.364 89.5541 228.364" stroke="#175073" stroke-opacity="0.48"/>
<path d="M969.675 522.018C969.675 522.018 625.207 657.76 748.385 533.581C871.563 409.401 675.707 550.431 707.554 419.635C739.401 288.839 322.013 625.255 352.885 423.303C383.758 221.35 207.95 291.863 255.25 91.6891C302.551 -108.485 92.1595 226.936 92.1595 226.936" stroke="#175073" stroke-opacity="0.48"/>
<path d="M974.561 514.478C974.561 514.478 631.142 652.623 753.365 527.586C875.587 402.549 680.818 544.944 711.661 413.929C742.504 282.914 327.707 622.237 357.03 420.074C386.352 217.912 211.09 289.651 256.854 89.1521C302.617 -111.347 94.8047 225.535 94.8047 225.535" stroke="#175073" stroke-opacity="0.48"/>
<path d="M979.438 506.95C979.438 506.95 637.089 647.491 758.349 521.603C879.609 395.715 685.937 539.467 715.774 408.24C745.611 277.014 333.429 619.226 361.2 416.863C388.971 214.501 214.263 287.463 258.488 86.6497C302.712 -114.163 97.4895 224.161 97.4895 224.161" stroke="#175073" stroke-opacity="0.48"/>
<path d="M984.309 499.434C984.309 499.434 643.047 642.363 763.338 515.631C883.629 388.9 691.065 534.001 719.895 402.569C748.724 271.137 339.178 616.22 365.396 413.669C391.614 211.118 217.471 285.299 260.154 84.1819C302.837 -116.935 100.214 222.814 100.214 222.814" stroke="#175073" stroke-opacity="0.48"/>
<path d="M989.173 491.93C989.173 491.93 649.016 637.239 768.332 509.671C887.647 382.102 696.202 528.545 724.022 396.915C751.843 265.285 344.955 613.22 369.618 410.491C394.282 207.763 220.713 283.158 261.852 81.7485C302.99 -119.661 102.98 221.495 102.98 221.495" stroke="#175073" stroke-opacity="0.48"/>
</svg>
