<svg width="1302" height="820" viewBox="0 0 1302 820" fill="none" xmlns="http://www.w3.org/2000/svg">
<path d="M1106.03 715.455C1106.03 715.455 1022.65 755.749 927.841 738.01C697.351 694.885 1026.09 412.123 807.925 385.225C638.801 364.374 887.513 676.578 698.067 574.805C575.815 509.129 636.575 438.494 514.457 372.643C354.456 286.365 312.848 481.639 195.888 377.936C97.262 290.489 401.791 322.138 274.212 242.773C232.494 216.82 199.001 197.424 157.471 189.813C93.1457 178.025 154.866 244.45 117.8 258.272C88.0134 269.379 11.77 263.153 11.77 263.153" stroke="#175073" stroke-opacity="0.5"/>
<path d="M1136.95 710.448C1136.95 710.448 1021.54 727.287 919.559 696.245C671.625 620.78 1183.61 456.546 942.534 396.11C755.646 349.259 900.968 640.487 727.696 526.083C615.881 452.255 718.963 407.391 607.384 333.45C461.192 236.571 323.024 383.302 234.85 280.396C160.498 193.621 499.727 273.325 388.022 187.73C351.494 159.741 321.506 138.406 276.76 124.935C207.452 104.069 248.599 167.613 199.179 171.869C159.465 175.289 73.7527 156.674 73.7527 156.674" stroke="#175073" stroke-opacity="0.5"/>
<path d="M1107.73 714.881C1107.73 714.881 1022.72 754.139 927.494 735.774C695.985 691.127 1033.93 413.522 814.492 385.063C644.377 363.001 888.202 674.543 699.413 572.094C577.585 505.983 640.461 436.46 518.772 370.176C359.333 283.33 312.965 476.568 197.331 372.802C99.8239 285.302 406.271 319.182 279.378 239.456C237.884 213.385 204.539 193.881 162.822 185.995C98.2064 173.78 158.963 240.137 121.265 253.534C90.9711 264.3 14.2092 257.5 14.2092 257.5" stroke="#175073" stroke-opacity="0.5"/>
<path d="M1109.28 714.562C1109.28 714.562 1022.65 752.733 926.98 733.71C694.399 687.463 1041.47 415.276 820.708 385.176C649.568 361.843 888.689 672.69 700.482 569.531C579.03 502.961 643.998 434.607 522.69 367.867C363.75 280.424 312.708 471.523 198.336 367.691C101.892 280.136 410.313 316.36 284.052 236.254C242.764 210.058 209.553 190.442 167.639 182.266C102.719 169.602 162.552 235.888 124.224 248.838C93.4236 259.245 16.1299 251.844 16.1299 251.844" stroke="#175073" stroke-opacity="0.5"/>
<path d="M1110.82 714.256C1110.82 714.256 1022.58 751.334 926.479 731.655C692.852 683.815 1049.01 417.075 826.948 385.338C654.803 360.735 889.193 670.853 701.59 566.995C580.526 499.974 647.579 432.796 526.665 365.608C368.241 277.578 312.533 466.517 199.434 362.631C104.064 275.029 414.426 313.593 288.81 233.116C247.733 206.799 214.659 187.072 172.553 178.607C107.336 165.496 166.239 231.703 127.285 244.206C95.981 254.253 18.1639 246.25 18.1639 246.25" stroke="#175073" stroke-opacity="0.5"/>
<path d="M1112.35 713.959C1112.35 713.959 1022.51 749.941 925.99 729.609C691.343 680.179 1056.55 418.917 833.212 385.546C660.08 359.676 889.714 669.031 702.734 564.486C582.074 497.021 651.203 431.027 530.696 363.398C372.807 274.79 312.437 461.549 200.625 357.619C106.339 269.981 418.608 310.88 293.65 230.041C252.789 203.606 219.856 183.771 177.563 175.018C112.056 161.461 170.022 227.582 130.446 239.635C98.6428 249.322 20.3111 240.718 20.3111 240.718" stroke="#175073" stroke-opacity="0.5"/>
<path d="M1113.88 713.674C1113.88 713.674 1022.44 748.556 925.514 727.573C689.873 676.559 1064.08 420.803 839.499 385.801C665.4 358.668 890.252 667.226 703.917 562.005C583.672 494.104 654.871 429.301 534.785 361.239C377.447 272.063 312.423 456.62 201.909 352.659C108.719 264.994 422.859 308.224 298.575 227.032C257.933 200.482 225.145 180.54 182.67 171.5C116.879 157.499 173.902 223.526 133.709 235.129C101.41 244.454 22.572 235.25 22.572 235.25" stroke="#175073" stroke-opacity="0.5"/>
<path d="M1115.4 713.4C1115.4 713.4 1022.38 747.178 925.051 725.545C688.442 672.954 1071.61 422.732 845.809 386.104C670.762 357.71 890.806 665.437 705.137 559.551C585.321 491.222 658.581 427.617 538.93 359.129C382.161 269.395 312.489 451.731 203.286 347.749C111.201 260.067 427.178 305.624 303.58 224.088C263.163 197.425 230.524 177.379 187.87 168.054C121.804 153.61 177.878 219.536 137.072 230.687C104.28 239.649 24.9449 229.847 24.9449 229.847" stroke="#175073" stroke-opacity="0.5"/>
<path d="M1116.9 713.136C1116.9 713.136 1022.32 745.806 924.601 723.527C687.05 669.363 1079.14 424.703 852.14 386.453C676.164 356.801 891.377 663.663 706.393 557.124C587.02 488.374 662.334 425.974 543.13 357.068C386.947 266.786 312.636 446.88 204.756 342.889C113.787 255.2 431.566 303.078 308.668 221.207C268.479 194.435 235.993 174.287 193.166 164.677C126.831 149.792 181.949 215.609 140.535 226.308C107.254 234.905 27.4305 224.506 27.4305 224.506" stroke="#175073" stroke-opacity="0.5"/>
<path d="M1118.4 712.882C1118.4 712.882 1022.25 744.441 924.163 721.518C685.696 665.788 1086.67 426.717 858.491 386.849C681.606 355.943 891.964 661.905 707.686 554.726C588.769 485.562 666.127 424.374 547.384 355.057C391.805 264.237 312.862 442.069 206.317 338.081C116.474 250.394 436.02 300.589 313.835 218.391C273.88 191.513 241.549 171.265 198.554 161.371C131.959 146.047 186.115 211.749 144.097 221.994C110.331 230.226 30.0274 219.23 30.0274 219.23" stroke="#175073" stroke-opacity="0.5"/>
<path d="M1119.89 712.639C1119.89 712.639 1022.19 743.083 923.737 719.518C684.381 662.229 1094.18 428.773 864.861 387.292C687.087 355.134 892.567 660.163 709.016 552.355C590.567 482.785 669.962 422.816 551.692 353.097C396.734 261.749 313.169 437.299 207.971 333.326C119.263 245.651 440.54 298.155 319.083 215.641C279.366 188.659 247.194 168.314 204.035 158.138C137.186 142.376 190.374 207.955 147.757 217.744C113.51 225.611 32.7358 214.019 32.7358 214.019" stroke="#175073" stroke-opacity="0.5"/>
<path d="M1121.37 712.406C1121.37 712.406 1022.14 741.732 923.324 717.527C683.105 658.684 1101.7 430.87 871.251 387.78C692.607 354.375 893.186 658.437 710.381 550.012C592.415 480.044 673.837 421.3 556.055 351.185C401.734 259.32 313.556 432.569 209.716 328.621C122.154 240.968 445.127 295.778 324.41 212.956C284.936 185.873 252.927 165.433 209.609 154.975C142.514 138.777 194.728 204.226 151.517 213.559C116.792 221.059 35.5557 208.874 35.5557 208.874" stroke="#175073" stroke-opacity="0.5"/>
<path d="M1122.84 712.182C1122.84 712.182 1022.08 740.386 922.922 715.546C681.867 655.156 1109.2 433.008 877.658 388.313C698.164 353.665 893.82 656.726 711.783 547.696C594.311 477.338 677.752 419.826 560.469 349.324C406.804 256.95 314.023 427.88 211.552 323.969C125.145 236.348 449.778 293.456 329.816 210.335C290.587 183.155 258.745 162.622 215.273 151.883C147.939 135.251 199.174 200.563 155.373 209.438C120.174 216.571 38.4854 203.793 38.4854 203.793" stroke="#175073" stroke-opacity="0.5"/>
<path d="M1124.31 711.968C1124.31 711.968 1022.02 739.048 922.533 713.573C680.669 651.643 1116.7 435.187 884.083 388.892C703.759 353.005 894.469 655.031 713.22 545.408C596.257 474.667 681.706 418.394 564.937 347.512C411.944 254.641 314.569 423.232 213.48 319.37C128.237 231.789 454.494 291.19 335.299 207.78C296.322 180.505 264.65 159.881 221.028 148.864C153.463 131.799 203.713 196.966 159.327 205.383C123.658 212.147 41.5256 198.779 41.5256 198.779" stroke="#175073" stroke-opacity="0.5"/>
<path d="M1125.76 711.764C1125.76 711.764 1021.97 737.716 922.156 711.611C679.509 648.147 1124.18 437.406 890.524 389.517C709.389 352.394 895.134 653.352 714.691 543.149C598.249 472.033 685.699 417.005 569.455 345.751C417.151 252.393 315.194 418.626 215.497 314.824C131.428 227.294 459.274 288.98 340.859 205.29C302.137 177.923 270.638 157.212 226.872 145.916C159.083 128.421 208.342 193.437 163.377 201.395C127.242 207.789 44.6746 193.831 44.6746 193.831" stroke="#175073" stroke-opacity="0.5"/>
<path d="M1127.19 711.569C1127.19 711.569 1021.91 736.391 921.791 709.658C678.388 644.667 1131.66 439.664 896.98 390.187C715.055 351.832 895.813 651.69 716.198 540.918C600.29 469.435 689.73 415.657 574.025 344.039C422.426 250.204 315.898 414.061 217.604 310.331C134.719 222.862 464.116 286.827 346.496 202.866C308.033 175.411 276.711 154.613 232.805 143.041C164.8 125.117 213.063 189.974 167.523 197.471C130.926 203.496 47.9329 188.95 47.9329 188.95" stroke="#175073" stroke-opacity="0.5"/>
<path d="M1128.62 711.382C1128.62 711.382 1021.86 735.071 921.437 707.713C677.306 641.204 1139.12 441.962 903.451 390.901C720.756 351.319 896.507 650.042 717.74 538.714C602.378 466.872 693.798 414.351 578.645 342.377C427.769 248.076 316.681 409.538 219.802 305.892C138.11 218.493 469.022 284.729 352.208 200.507C314.009 172.966 282.868 152.085 238.827 140.237C170.613 121.887 217.875 186.577 171.764 193.614C134.71 199.268 51.3004 184.135 51.3004 184.135" stroke="#175073" stroke-opacity="0.5"/>
<path d="M1130.04 711.205C1130.04 711.205 1021.81 733.758 921.096 705.778C676.263 637.757 1146.57 444.298 909.936 391.66C726.491 350.854 897.216 648.41 719.315 536.538C604.514 464.345 697.904 413.087 583.315 340.765C433.179 246.008 317.543 405.058 222.09 301.506C141.599 214.187 473.989 282.688 357.995 198.213C320.064 170.59 289.107 149.627 244.936 137.506C176.521 118.731 222.776 183.248 176.101 189.823C138.592 195.106 54.7759 179.388 54.7759 179.388" stroke="#175073" stroke-opacity="0.5"/>
<path d="M1131.45 711.037C1131.45 711.037 1021.75 732.451 920.766 703.853C675.258 634.327 1154.01 446.673 916.433 392.463C732.258 350.438 897.938 646.794 720.925 534.39C606.695 461.855 702.045 411.864 588.033 339.202C438.653 243.999 318.483 400.62 224.465 297.174C145.185 209.945 479.017 280.703 363.855 195.985C326.197 168.282 295.426 147.241 251.131 134.846C182.522 115.649 227.765 179.986 180.531 186.098C142.572 191.01 58.358 174.709 58.358 174.709" stroke="#175073" stroke-opacity="0.5"/>
<path d="M1132.84 710.877C1132.84 710.877 1021.7 731.151 920.447 701.937C674.291 630.914 1161.44 449.086 922.943 393.31C738.058 350.071 898.675 645.194 722.568 532.271C608.923 459.401 706.223 410.684 592.8 337.69C444.192 242.052 319.502 396.226 226.929 292.898C148.868 205.767 484.106 278.774 369.789 193.823C332.407 166.044 301.827 144.926 257.412 132.26C188.617 112.642 232.843 176.791 185.054 182.44C146.65 186.98 62.0475 170.098 62.0475 170.098" stroke="#175073" stroke-opacity="0.5"/>
<path d="M1134.22 710.726C1134.22 710.726 1021.65 729.857 920.139 700.031C673.363 627.519 1168.85 451.536 929.463 394.2C743.89 349.753 899.425 643.61 724.244 530.181C611.197 456.983 710.435 409.545 597.614 336.227C449.795 240.165 320.598 391.874 229.482 288.676C152.648 201.654 489.254 276.902 375.795 191.727C338.693 163.874 308.308 142.681 263.777 129.746C194.803 109.71 238.008 173.665 189.67 178.85C150.825 183.016 65.8431 165.555 65.8431 165.555" stroke="#175073" stroke-opacity="0.5"/>
<path d="M1135.59 710.583C1135.59 710.583 1021.6 728.569 919.843 698.133C672.475 624.141 1176.24 454.023 935.994 395.134C749.753 349.482 900.19 642.041 725.954 528.117C613.516 454.601 714.682 408.448 602.476 334.814C455.463 238.338 321.772 387.566 232.122 284.508C156.526 197.605 494.461 275.085 381.873 189.696C345.056 161.773 314.868 140.508 270.227 127.304C201.082 106.852 243.26 170.605 194.379 175.326C155.097 179.119 69.7453 161.08 69.7453 161.08" stroke="#175073" stroke-opacity="0.5"/>
</svg>
