<svg width="512" height="414" viewBox="0 0 512 414" fill="none" xmlns="http://www.w3.org/2000/svg">
<path d="M49.6522 170.255C49.6522 170.255 521.915 340.836 345.02 150.947C168.125 -38.9426 152.777 348.726 357.688 393.325" stroke="#175073" stroke-opacity="0.5"/>
<path d="M48.6605 170.285C48.6605 170.285 523.236 345.092 348.851 155.612C174.466 -33.8686 148.506 347.446 355.208 394.343" stroke="#175073" stroke-opacity="0.5"/>
<path d="M47.5198 170.531C47.5198 170.531 524.587 349.631 352.644 160.488C180.7 -28.6554 144.127 346.449 352.698 395.663" stroke="#175073" stroke-opacity="0.5"/>
<path d="M46.395 170.747C46.395 170.747 525.878 354.11 356.403 165.335C186.928 -23.4397 139.748 345.394 350.155 396.916" stroke="#175073" stroke-opacity="0.5"/>
<path d="M45.2885 170.934C45.2885 170.934 527.109 358.531 360.131 170.155C193.152 -18.2216 135.373 344.281 347.581 398.104" stroke="#175073" stroke-opacity="0.5"/>
<path d="M44.2002 171.091C44.2002 171.091 528.28 362.892 363.825 174.945C199.37 -13.0025 131.001 343.11 344.976 399.225" stroke="#175073" stroke-opacity="0.5"/>
<path d="M43.1315 171.221C43.1315 171.221 529.392 367.194 367.487 179.707C205.583 -7.78095 126.634 341.884 342.341 400.282" stroke="#175073" stroke-opacity="0.5"/>
<path d="M42.0842 171.323C42.0842 171.323 530.446 371.437 371.119 184.44C211.791 -2.55818 122.275 340.603 339.68 401.274" stroke="#175073" stroke-opacity="0.5"/>
<path d="M41.0584 171.398C41.0584 171.398 531.443 375.621 374.718 189.143C217.992 2.6661 117.925 339.268 336.992 402.201" stroke="#175073" stroke-opacity="0.5"/>
<path d="M40.0555 171.447C40.0555 171.447 532.384 379.745 378.286 193.818C224.188 7.89124 113.585 337.878 334.279 403.065" stroke="#175073" stroke-opacity="0.5"/>
<path d="M39.0763 171.471C39.0763 171.471 533.268 383.81 381.823 198.464C230.378 13.1175 109.257 336.437 331.542 403.866" stroke="#175073" stroke-opacity="0.5"/>
<path d="M38.1222 171.471C38.1222 171.471 534.097 387.816 385.329 203.081C236.562 18.3456 104.943 334.945 328.782 404.605" stroke="#175073" stroke-opacity="0.5"/>
<path d="M37.1937 171.447C37.1937 171.447 534.871 391.764 388.805 207.67C242.739 23.5749 100.644 333.402 326.001 405.283" stroke="#175073" stroke-opacity="0.5"/>
<path d="M36.2931 171.398C36.2931 171.398 535.593 395.652 392.252 212.228C248.911 28.8037 96.3617 331.809 323.201 405.899" stroke="#175073" stroke-opacity="0.5"/>
<path d="M35.4198 171.329C35.4198 171.329 536.261 399.482 395.668 216.759C255.075 34.0348 92.0973 330.17 320.382 406.455" stroke="#175073" stroke-opacity="0.5"/>
<path d="M34.5757 171.239C34.5757 171.239 536.877 403.255 399.055 221.261C261.234 39.267 87.8529 328.483 317.546 406.953" stroke="#175073" stroke-opacity="0.5"/>
<path d="M33.7617 171.126C33.7617 171.126 537.441 406.967 402.413 225.732C267.385 44.498 83.6301 326.748 314.694 407.389" stroke="#175073" stroke-opacity="0.5"/>
<path d="M32.9792 170.993C32.9792 170.993 537.955 410.621 405.743 230.176C273.53 49.7303 79.4306 324.968 311.827 407.768" stroke="#175073" stroke-opacity="0.5"/>
<path d="M32.2286 170.842C32.2286 170.842 538.42 414.218 409.044 234.591C279.668 54.9635 75.2555 323.145 308.948 408.09" stroke="#175073" stroke-opacity="0.5"/>
<path d="M31.5107 170.672C31.5107 170.672 538.835 417.757 412.317 238.976C285.799 60.1964 71.1061 321.278 306.056 408.354" stroke="#175073" stroke-opacity="0.5"/>
<path d="M30.8277 170.485C30.8277 170.485 539.202 421.238 415.563 243.334C291.923 65.4298 66.9853 319.37 303.155 408.563" stroke="#175073" stroke-opacity="0.5"/>
</svg>
